<mxfile host="app.diagrams.net" agent="Mozilla/5.0 (Linux; Android 10; K) AppleWebKit/537.36 (KHTML, like Gecko) Chrome/134.0.0.0 Mobile Safari/537.36" version="26.1.3" pages="10">
  <diagram name="Страница — 1" id="PsKUhsp7aJ5fHAiVNiuK">
    <mxGraphModel grid="0" page="0" gridSize="10" guides="1" tooltips="1" connect="1" arrows="1" fold="1" pageScale="1" pageWidth="827" pageHeight="1169" math="0" shadow="0">
      <root>
        <mxCell id="0" />
        <mxCell id="1" parent="0" />
        <mxCell id="TUwb4s8Q9FS5xKBGUXzE-13" value="" style="endArrow=none;html=1;rounded=0;fontSize=12;startSize=8;endSize=8;curved=1;" edge="1" parent="1">
          <mxGeometry width="50" height="50" relative="1" as="geometry">
            <mxPoint x="256" y="518" as="sourcePoint" />
            <mxPoint x="416" y="518" as="targetPoint" />
            <Array as="points">
              <mxPoint x="309" y="515" />
            </Array>
          </mxGeometry>
        </mxCell>
        <mxCell id="ZK5l6dZrUPHt09VwG5MG-3" style="edgeStyle=none;curved=1;rounded=0;orthogonalLoop=1;jettySize=auto;html=1;fontSize=12;startSize=8;endSize=8;" edge="1" parent="1" source="ZK5l6dZrUPHt09VwG5MG-1">
          <mxGeometry relative="1" as="geometry">
            <mxPoint x="185" y="296.17523193359375" as="targetPoint" />
          </mxGeometry>
        </mxCell>
        <mxCell id="ZK5l6dZrUPHt09VwG5MG-1" value="&lt;font style=&quot;vertical-align: inherit;&quot;&gt;&lt;font style=&quot;vertical-align: inherit;&quot;&gt;начало&lt;/font&gt;&lt;/font&gt;" style="ellipse;whiteSpace=wrap;html=1;" vertex="1" parent="1">
          <mxGeometry x="125" y="160" width="120" height="80" as="geometry" />
        </mxCell>
        <mxCell id="TUwb4s8Q9FS5xKBGUXzE-5" style="edgeStyle=none;curved=1;rounded=0;orthogonalLoop=1;jettySize=auto;html=1;fontSize=12;startSize=8;endSize=8;" edge="1" parent="1" source="TUwb4s8Q9FS5xKBGUXzE-4">
          <mxGeometry relative="1" as="geometry">
            <mxPoint x="183" y="396.32139587402344" as="targetPoint" />
          </mxGeometry>
        </mxCell>
        <mxCell id="TUwb4s8Q9FS5xKBGUXzE-4" value="&lt;font style=&quot;vertical-align: inherit;&quot;&gt;&lt;font style=&quot;vertical-align: inherit;&quot;&gt;ввод данных&lt;/font&gt;&lt;/font&gt;" style="shape=parallelogram;perimeter=parallelogramPerimeter;whiteSpace=wrap;html=1;fixedSize=1;" vertex="1" parent="1">
          <mxGeometry x="123" y="296" width="120" height="60" as="geometry" />
        </mxCell>
        <mxCell id="TUwb4s8Q9FS5xKBGUXzE-7" style="edgeStyle=none;curved=1;rounded=0;orthogonalLoop=1;jettySize=auto;html=1;fontSize=12;startSize=8;endSize=8;" edge="1" parent="1" source="TUwb4s8Q9FS5xKBGUXzE-6">
          <mxGeometry relative="1" as="geometry">
            <mxPoint x="183" y="477.52455139160156" as="targetPoint" />
          </mxGeometry>
        </mxCell>
        <mxCell id="TUwb4s8Q9FS5xKBGUXzE-6" value="&lt;font style=&quot;vertical-align: inherit;&quot;&gt;&lt;font style=&quot;vertical-align: inherit;&quot;&gt;&lt;font style=&quot;vertical-align: inherit;&quot;&gt;&lt;font style=&quot;vertical-align: inherit;&quot;&gt;С=С/100*п+С&lt;/font&gt;&lt;/font&gt;&lt;/font&gt;&lt;/font&gt;" style="rounded=0;whiteSpace=wrap;html=1;" vertex="1" parent="1">
          <mxGeometry x="123" y="396" width="120" height="41" as="geometry" />
        </mxCell>
        <mxCell id="TUwb4s8Q9FS5xKBGUXzE-9" value="&lt;font style=&quot;vertical-align: inherit;&quot;&gt;&lt;font style=&quot;vertical-align: inherit;&quot;&gt;S=10000&lt;/font&gt;&lt;/font&gt;" style="rhombus;whiteSpace=wrap;html=1;" vertex="1" parent="1">
          <mxGeometry x="98.5" y="477" width="169" height="80" as="geometry" />
        </mxCell>
        <mxCell id="TUwb4s8Q9FS5xKBGUXzE-12" style="edgeStyle=none;curved=1;rounded=0;orthogonalLoop=1;jettySize=auto;html=1;entryX=1;entryY=0.5;entryDx=0;entryDy=0;fontSize=12;startSize=8;endSize=8;" edge="1" parent="1" source="TUwb4s8Q9FS5xKBGUXzE-9" target="TUwb4s8Q9FS5xKBGUXzE-9">
          <mxGeometry relative="1" as="geometry" />
        </mxCell>
        <mxCell id="TUwb4s8Q9FS5xKBGUXzE-19" value="" style="endArrow=classic;html=1;rounded=0;fontSize=12;startSize=8;endSize=8;curved=1;" edge="1" parent="1" source="TUwb4s8Q9FS5xKBGUXzE-35">
          <mxGeometry width="50" height="50" relative="1" as="geometry">
            <mxPoint x="415" y="517" as="sourcePoint" />
            <mxPoint x="418" y="683" as="targetPoint" />
          </mxGeometry>
        </mxCell>
        <mxCell id="TUwb4s8Q9FS5xKBGUXzE-28" value="" style="endArrow=none;html=1;rounded=0;fontSize=12;startSize=8;endSize=8;curved=1;entryX=0;entryY=0.5;entryDx=0;entryDy=0;" edge="1" parent="1" target="TUwb4s8Q9FS5xKBGUXzE-9">
          <mxGeometry width="50" height="50" relative="1" as="geometry">
            <mxPoint x="-51" y="517" as="sourcePoint" />
            <mxPoint x="102" y="522" as="targetPoint" />
          </mxGeometry>
        </mxCell>
        <mxCell id="TUwb4s8Q9FS5xKBGUXzE-32" value="&lt;font style=&quot;vertical-align: inherit;&quot;&gt;&lt;font style=&quot;vertical-align: inherit;&quot;&gt;да&lt;/font&gt;&lt;/font&gt;" style="text;html=1;align=center;verticalAlign=middle;resizable=0;points=[];autosize=1;strokeColor=none;fillColor=none;fontSize=16;" vertex="1" parent="1">
          <mxGeometry x="311" y="459.5" width="36" height="31" as="geometry" />
        </mxCell>
        <mxCell id="TUwb4s8Q9FS5xKBGUXzE-34" value="&lt;font style=&quot;vertical-align: inherit;&quot;&gt;&lt;font style=&quot;vertical-align: inherit;&quot;&gt;&lt;font style=&quot;vertical-align: inherit;&quot;&gt;&lt;font style=&quot;vertical-align: inherit;&quot;&gt;нет&lt;/font&gt;&lt;/font&gt;&lt;/font&gt;&lt;/font&gt;" style="text;html=1;align=center;verticalAlign=middle;resizable=0;points=[];autosize=1;strokeColor=none;fillColor=none;fontSize=16;" vertex="1" parent="1">
          <mxGeometry x="36" y="468" width="43" height="31" as="geometry" />
        </mxCell>
        <mxCell id="TUwb4s8Q9FS5xKBGUXzE-36" value="" style="endArrow=classic;html=1;rounded=0;fontSize=12;startSize=8;endSize=8;curved=1;" edge="1" parent="1" target="TUwb4s8Q9FS5xKBGUXzE-35">
          <mxGeometry width="50" height="50" relative="1" as="geometry">
            <mxPoint x="415" y="517" as="sourcePoint" />
            <mxPoint x="418" y="683" as="targetPoint" />
          </mxGeometry>
        </mxCell>
        <mxCell id="TUwb4s8Q9FS5xKBGUXzE-37" style="edgeStyle=none;curved=1;rounded=0;orthogonalLoop=1;jettySize=auto;html=1;fontSize=12;startSize=8;endSize=8;" edge="1" parent="1" source="TUwb4s8Q9FS5xKBGUXzE-35">
          <mxGeometry relative="1" as="geometry">
            <mxPoint x="405.9999999999998" y="824.5302734374998" as="targetPoint" />
          </mxGeometry>
        </mxCell>
        <mxCell id="TUwb4s8Q9FS5xKBGUXzE-35" value="&lt;font style=&quot;vertical-align: inherit;&quot;&gt;&lt;font style=&quot;vertical-align: inherit;&quot;&gt;Ввод n и p&lt;/font&gt;&lt;/font&gt;" style="shape=parallelogram;perimeter=parallelogramPerimeter;whiteSpace=wrap;html=1;fixedSize=1;size=12.029866536458314;" vertex="1" parent="1">
          <mxGeometry x="340" y="678" width="132" height="60" as="geometry" />
        </mxCell>
        <mxCell id="TUwb4s8Q9FS5xKBGUXzE-44" style="edgeStyle=none;curved=1;rounded=0;orthogonalLoop=1;jettySize=auto;html=1;fontSize=12;startSize=8;endSize=8;" edge="1" parent="1" source="TUwb4s8Q9FS5xKBGUXzE-42">
          <mxGeometry relative="1" as="geometry">
            <mxPoint x="403" y="981.8442826704545" as="targetPoint" />
          </mxGeometry>
        </mxCell>
        <mxCell id="TUwb4s8Q9FS5xKBGUXzE-42" value="&lt;font style=&quot;vertical-align: inherit;&quot;&gt;&lt;font style=&quot;vertical-align: inherit;&quot;&gt;н=10;p=13&lt;/font&gt;&lt;/font&gt;" style="rounded=0;whiteSpace=wrap;html=1;" vertex="1" parent="1">
          <mxGeometry x="343" y="826" width="120" height="60" as="geometry" />
        </mxCell>
        <mxCell id="TUwb4s8Q9FS5xKBGUXzE-47" style="edgeStyle=none;curved=1;rounded=0;orthogonalLoop=1;jettySize=auto;html=1;fontSize=12;startSize=8;endSize=8;" edge="1" parent="1" source="TUwb4s8Q9FS5xKBGUXzE-46">
          <mxGeometry relative="1" as="geometry">
            <mxPoint x="401" y="1119" as="targetPoint" />
          </mxGeometry>
        </mxCell>
        <mxCell id="TUwb4s8Q9FS5xKBGUXzE-46" value="&lt;font style=&quot;vertical-align: inherit;&quot;&gt;&lt;font style=&quot;vertical-align: inherit;&quot;&gt;&lt;font style=&quot;vertical-align: inherit;&quot;&gt;&lt;font style=&quot;vertical-align: inherit;&quot;&gt;&lt;font style=&quot;vertical-align: inherit;&quot;&gt;&lt;font style=&quot;vertical-align: inherit;&quot;&gt;&lt;font style=&quot;vertical-align: inherit;&quot;&gt;&lt;font style=&quot;vertical-align: inherit;&quot;&gt;вывод количества денег&lt;/font&gt;&lt;/font&gt;&lt;/font&gt;&lt;/font&gt;&lt;/font&gt;&lt;/font&gt;&lt;/font&gt;&lt;/font&gt;" style="shape=parallelogram;perimeter=parallelogramPerimeter;whiteSpace=wrap;html=1;fixedSize=1;" vertex="1" parent="1">
          <mxGeometry x="278.75" y="983" width="254.5" height="65" as="geometry" />
        </mxCell>
        <mxCell id="TUwb4s8Q9FS5xKBGUXzE-48" value="&lt;font style=&quot;vertical-align: inherit;&quot;&gt;&lt;font style=&quot;vertical-align: inherit;&quot;&gt;конец&lt;/font&gt;&lt;/font&gt;" style="ellipse;whiteSpace=wrap;html=1;" vertex="1" parent="1">
          <mxGeometry x="337.5" y="1117" width="137" height="80" as="geometry" />
        </mxCell>
        <mxCell id="RciClFge89l9ULr2gFI9-15" value="" style="endArrow=classic;html=1;rounded=0;fontSize=12;startSize=8;endSize=8;curved=1;entryX=0;entryY=0.5;entryDx=0;entryDy=0;" edge="1" parent="1" target="TUwb4s8Q9FS5xKBGUXzE-4">
          <mxGeometry width="50" height="50" relative="1" as="geometry">
            <mxPoint x="-46" y="326" as="sourcePoint" />
            <mxPoint y="261" as="targetPoint" />
          </mxGeometry>
        </mxCell>
        <mxCell id="RciClFge89l9ULr2gFI9-16" value="" style="endArrow=none;html=1;rounded=0;fontSize=12;startSize=8;endSize=8;curved=1;" edge="1" parent="1">
          <mxGeometry width="50" height="50" relative="1" as="geometry">
            <mxPoint x="-44" y="520" as="sourcePoint" />
            <mxPoint x="-44" y="322" as="targetPoint" />
          </mxGeometry>
        </mxCell>
      </root>
    </mxGraphModel>
  </diagram>
  <diagram id="kcOfz9TrdNklN5SSogII" name="Страница — 2">
    <mxGraphModel dx="902" dy="466" grid="0" gridSize="10" guides="1" tooltips="1" connect="1" arrows="1" fold="1" page="0" pageScale="1" pageWidth="827" pageHeight="1169" math="0" shadow="0">
      <root>
        <mxCell id="0" />
        <mxCell id="1" parent="0" />
        <mxCell id="-73GyLebmthTs0oMFk1I-3" style="edgeStyle=none;curved=1;rounded=0;orthogonalLoop=1;jettySize=auto;html=1;entryX=0.5;entryY=0;entryDx=0;entryDy=0;fontSize=12;startSize=8;endSize=8;" parent="1" source="lwK5eI8QDTYeE3-aRET6-1" target="-73GyLebmthTs0oMFk1I-1" edge="1">
          <mxGeometry relative="1" as="geometry" />
        </mxCell>
        <mxCell id="lwK5eI8QDTYeE3-aRET6-1" value="&lt;font style=&quot;vertical-align: inherit;&quot;&gt;&lt;font style=&quot;vertical-align: inherit;&quot;&gt;начало&lt;/font&gt;&lt;/font&gt;" style="ellipse;whiteSpace=wrap;html=1;" parent="1" vertex="1">
          <mxGeometry x="-2" y="524" width="133" height="64" as="geometry" />
        </mxCell>
        <mxCell id="lwK5eI8QDTYeE3-aRET6-6" value="&lt;font style=&quot;vertical-align: inherit;&quot;&gt;&lt;font style=&quot;vertical-align: inherit;&quot;&gt;&lt;font style=&quot;vertical-align: inherit;&quot;&gt;&lt;font style=&quot;vertical-align: inherit;&quot;&gt;&lt;font style=&quot;vertical-align: inherit;&quot;&gt;&lt;font style=&quot;vertical-align: inherit;&quot;&gt;&amp;nbsp; &amp;nbsp;деньги&amp;gt;=100&lt;/font&gt;&lt;/font&gt;&lt;/font&gt;&lt;/font&gt;&lt;/font&gt;&lt;/font&gt;" style="rhombus;whiteSpace=wrap;html=1;" parent="1" vertex="1">
          <mxGeometry x="-46.25" y="1006" width="221.5" height="160" as="geometry" />
        </mxCell>
        <mxCell id="2hjQvIU8jpqtdSepDS6M-3" value="" style="endArrow=none;html=1;rounded=0;fontSize=12;startSize=8;endSize=8;curved=1;entryX=0;entryY=1;entryDx=0;entryDy=0;" parent="1" edge="1">
          <mxGeometry width="50" height="50" relative="1" as="geometry">
            <mxPoint x="-268" y="1086" as="sourcePoint" />
            <mxPoint x="-46.375" y="1086" as="targetPoint" />
          </mxGeometry>
        </mxCell>
        <mxCell id="-73GyLebmthTs0oMFk1I-8" style="edgeStyle=none;curved=1;rounded=0;orthogonalLoop=1;jettySize=auto;html=1;fontSize=12;startSize=8;endSize=8;" parent="1" source="-73GyLebmthTs0oMFk1I-1" target="lwK5eI8QDTYeE3-aRET6-6" edge="1">
          <mxGeometry relative="1" as="geometry" />
        </mxCell>
        <mxCell id="-73GyLebmthTs0oMFk1I-1" value="&lt;font style=&quot;vertical-align: inherit;&quot;&gt;&lt;font style=&quot;vertical-align: inherit;&quot;&gt;&lt;font style=&quot;vertical-align: inherit;&quot;&gt;&lt;font style=&quot;vertical-align: inherit;&quot;&gt;мoней=(целое(вход))&amp;nbsp;&lt;/font&gt;&lt;/font&gt;&lt;/font&gt;&lt;/font&gt;" style="shape=parallelogram;perimeter=parallelogramPerimeter;whiteSpace=wrap;html=1;fixedSize=1;" parent="1" vertex="1">
          <mxGeometry x="-35" y="743" width="181" height="85" as="geometry" />
        </mxCell>
        <mxCell id="-73GyLebmthTs0oMFk1I-11" value="" style="endArrow=none;html=1;rounded=0;fontSize=12;startSize=8;endSize=8;curved=1;exitX=1;exitY=0.5;exitDx=0;exitDy=0;" parent="1" source="lwK5eI8QDTYeE3-aRET6-6" edge="1">
          <mxGeometry width="50" height="50" relative="1" as="geometry">
            <mxPoint x="235" y="1062" as="sourcePoint" />
            <mxPoint x="384" y="1086" as="targetPoint" />
          </mxGeometry>
        </mxCell>
        <mxCell id="-73GyLebmthTs0oMFk1I-12" value="&lt;font style=&quot;vertical-align: inherit;&quot;&gt;&lt;font style=&quot;vertical-align: inherit;&quot;&gt;да&lt;/font&gt;&lt;/font&gt;" style="text;html=1;align=center;verticalAlign=middle;resizable=0;points=[];autosize=1;strokeColor=none;fillColor=none;fontSize=16;" parent="1" vertex="1">
          <mxGeometry x="214" y="1009.5" width="36" height="31" as="geometry" />
        </mxCell>
        <mxCell id="-73GyLebmthTs0oMFk1I-13" value="&lt;font style=&quot;vertical-align: inherit;&quot;&gt;&lt;font style=&quot;vertical-align: inherit;&quot;&gt;нет&lt;/font&gt;&lt;/font&gt;" style="text;html=1;align=center;verticalAlign=middle;resizable=0;points=[];autosize=1;strokeColor=none;fillColor=none;fontSize=16;" parent="1" vertex="1">
          <mxGeometry x="-154" y="1021.5" width="43" height="31" as="geometry" />
        </mxCell>
        <mxCell id="-73GyLebmthTs0oMFk1I-15" value="" style="endArrow=classic;html=1;rounded=0;fontSize=12;startSize=8;endSize=8;curved=1;" parent="1" edge="1">
          <mxGeometry width="50" height="50" relative="1" as="geometry">
            <mxPoint x="-265" y="1082" as="sourcePoint" />
            <mxPoint x="-253" y="1501" as="targetPoint" />
          </mxGeometry>
        </mxCell>
        <mxCell id="-73GyLebmthTs0oMFk1I-16" value="&lt;font style=&quot;vertical-align: inherit;&quot;&gt;&lt;font style=&quot;vertical-align: inherit;&quot;&gt;If&lt;/font&gt;&lt;/font&gt;" style="text;html=1;align=center;verticalAlign=middle;resizable=0;points=[];autosize=1;strokeColor=none;fillColor=none;fontSize=16;" parent="1" vertex="1">
          <mxGeometry x="17" y="935.5" width="29" height="31" as="geometry" />
        </mxCell>
        <mxCell id="-73GyLebmthTs0oMFk1I-19" style="edgeStyle=none;curved=1;rounded=0;orthogonalLoop=1;jettySize=auto;html=1;fontSize=12;startSize=8;endSize=8;" parent="1" edge="1">
          <mxGeometry relative="1" as="geometry">
            <mxPoint x="-245.79750061035156" y="1742.5120086669922" as="targetPoint" />
            <mxPoint x="-251.6775355018301" y="1578" as="sourcePoint" />
          </mxGeometry>
        </mxCell>
        <mxCell id="-73GyLebmthTs0oMFk1I-18" value="&lt;font style=&quot;vertical-align: inherit;&quot;&gt;&lt;font style=&quot;vertical-align: inherit;&quot;&gt;еlse&lt;/font&gt;&lt;/font&gt;" style="text;html=1;align=center;verticalAlign=middle;resizable=0;points=[];autosize=1;strokeColor=none;fillColor=none;fontSize=16;" parent="1" vertex="1">
          <mxGeometry x="-304" y="1441.5" width="47" height="31" as="geometry" />
        </mxCell>
        <mxCell id="-73GyLebmthTs0oMFk1I-27" style="edgeStyle=none;curved=1;rounded=0;orthogonalLoop=1;jettySize=auto;html=1;fontSize=12;startSize=8;endSize=8;" parent="1" source="-73GyLebmthTs0oMFk1I-20" target="-73GyLebmthTs0oMFk1I-28" edge="1">
          <mxGeometry relative="1" as="geometry">
            <mxPoint x="-242.375" y="1968.0680930397725" as="targetPoint" />
          </mxGeometry>
        </mxCell>
        <mxCell id="-73GyLebmthTs0oMFk1I-20" value="&lt;font style=&quot;vertical-align: inherit;&quot;&gt;&lt;font style=&quot;vertical-align: inherit;&quot;&gt;&lt;font style=&quot;vertical-align: inherit;&quot;&gt;&lt;font style=&quot;vertical-align: inherit;&quot;&gt;&lt;font style=&quot;vertical-align: inherit;&quot;&gt;&lt;font style=&quot;vertical-align: inherit;&quot;&gt;&amp;nbsp;К сожалению, у нас нет товара дешевле 100 рублей. Приходите ещё&amp;nbsp;&lt;/font&gt;&lt;/font&gt;&lt;/font&gt;&lt;/font&gt;&lt;/font&gt;&lt;/font&gt;" style="rounded=0;whiteSpace=wrap;html=1;" parent="1" vertex="1">
          <mxGeometry x="-368" y="1741" width="251.25" height="101" as="geometry" />
        </mxCell>
        <mxCell id="-73GyLebmthTs0oMFk1I-21" value="" style="endArrow=classic;html=1;rounded=0;fontSize=12;startSize=8;endSize=8;curved=1;" parent="1" edge="1">
          <mxGeometry width="50" height="50" relative="1" as="geometry">
            <mxPoint x="384" y="1085" as="sourcePoint" />
            <mxPoint x="392" y="1553" as="targetPoint" />
          </mxGeometry>
        </mxCell>
        <mxCell id="-73GyLebmthTs0oMFk1I-24" style="edgeStyle=none;curved=1;rounded=0;orthogonalLoop=1;jettySize=auto;html=1;fontSize=12;startSize=8;endSize=8;" parent="1" source="-73GyLebmthTs0oMFk1I-25" edge="1">
          <mxGeometry relative="1" as="geometry">
            <mxPoint x="404.388427734375" y="1884.7666015625" as="targetPoint" />
          </mxGeometry>
        </mxCell>
        <mxCell id="-73GyLebmthTs0oMFk1I-22" value="&lt;font style=&quot;vertical-align: inherit;&quot;&gt;&lt;font style=&quot;vertical-align: inherit;&quot;&gt;Добро пожаловать, отправили каталог на вашу электронную почту&lt;/font&gt;&lt;/font&gt;" style="rounded=0;whiteSpace=wrap;html=1;" parent="1" vertex="1">
          <mxGeometry x="301" y="1553" width="187" height="65" as="geometry" />
        </mxCell>
        <mxCell id="-73GyLebmthTs0oMFk1I-23" value="&lt;font style=&quot;vertical-align: inherit;&quot;&gt;&lt;font style=&quot;vertical-align: inherit;&quot;&gt;мoney&amp;lt;=100&lt;/font&gt;&lt;/font&gt;" style="rounded=0;whiteSpace=wrap;html=1;" parent="1" vertex="1">
          <mxGeometry x="-334" y="1503" width="170" height="74" as="geometry" />
        </mxCell>
        <mxCell id="-73GyLebmthTs0oMFk1I-26" value="" style="edgeStyle=none;curved=1;rounded=0;orthogonalLoop=1;jettySize=auto;html=1;fontSize=12;startSize=8;endSize=8;" parent="1" source="-73GyLebmthTs0oMFk1I-22" target="-73GyLebmthTs0oMFk1I-25" edge="1">
          <mxGeometry relative="1" as="geometry">
            <mxPoint x="404.388427734375" y="1884.7666015625" as="targetPoint" />
            <mxPoint x="396" y="1618" as="sourcePoint" />
          </mxGeometry>
        </mxCell>
        <mxCell id="-73GyLebmthTs0oMFk1I-30" style="edgeStyle=none;curved=1;rounded=0;orthogonalLoop=1;jettySize=auto;html=1;fontSize=12;startSize=8;endSize=8;" parent="1" source="-73GyLebmthTs0oMFk1I-25" edge="1">
          <mxGeometry relative="1" as="geometry">
            <mxPoint x="386.60135226779516" y="2141.5172390407984" as="targetPoint" />
          </mxGeometry>
        </mxCell>
        <mxCell id="-73GyLebmthTs0oMFk1I-25" value="&lt;font style=&quot;vertical-align: inherit;&quot;&gt;&lt;font style=&quot;vertical-align: inherit;&quot;&gt;Эnter&lt;/font&gt;&lt;/font&gt;" style="shape=parallelogram;perimeter=parallelogramPerimeter;whiteSpace=wrap;html=1;fixedSize=1;" parent="1" vertex="1">
          <mxGeometry x="288" y="1889" width="208" height="100" as="geometry" />
        </mxCell>
        <mxCell id="-73GyLebmthTs0oMFk1I-28" value="&lt;font style=&quot;vertical-align: inherit;&quot;&gt;&lt;font style=&quot;vertical-align: inherit;&quot;&gt;Эnter&lt;/font&gt;&lt;/font&gt;" style="shape=parallelogram;perimeter=parallelogramPerimeter;whiteSpace=wrap;html=1;fixedSize=1;" parent="1" vertex="1">
          <mxGeometry x="-331" y="1918" width="177" height="85.93" as="geometry" />
        </mxCell>
        <mxCell id="-73GyLebmthTs0oMFk1I-31" value="&lt;font style=&quot;vertical-align: inherit;&quot;&gt;&lt;font style=&quot;vertical-align: inherit;&quot;&gt;&lt;font style=&quot;vertical-align: inherit;&quot;&gt;&lt;font style=&quot;vertical-align: inherit;&quot;&gt;кнец&lt;/font&gt;&lt;/font&gt;&lt;/font&gt;&lt;/font&gt;" style="ellipse;whiteSpace=wrap;html=1;" parent="1" vertex="1">
          <mxGeometry x="318" y="2141" width="133" height="72" as="geometry" />
        </mxCell>
      </root>
    </mxGraphModel>
  </diagram>
  <diagram id="OXX89_arL3wWW7Rr-94b" name="Страница — 3">
    <mxGraphModel dx="1393" dy="1104" grid="0" gridSize="10" guides="1" tooltips="1" connect="1" arrows="1" fold="1" page="0" pageScale="1" pageWidth="827" pageHeight="1169" math="0" shadow="0">
      <root>
        <mxCell id="0" />
        <mxCell id="1" parent="0" />
        <mxCell id="mwBdrK15X9zcYXQbRbcV-6" style="edgeStyle=none;curved=1;rounded=0;orthogonalLoop=1;jettySize=auto;html=1;entryX=0.5;entryY=0;entryDx=0;entryDy=0;fontSize=12;startSize=8;endSize=8;" parent="1" source="awSaAbgqy8fszP1SLm_e-35" target="awSaAbgqy8fszP1SLm_e-5" edge="1">
          <mxGeometry relative="1" as="geometry" />
        </mxCell>
        <mxCell id="awSaAbgqy8fszP1SLm_e-35" value="&lt;font style=&quot;vertical-align: inherit;&quot;&gt;&lt;font style=&quot;vertical-align: inherit;&quot;&gt;Operation = input(&quot;Выберите операцию (вклад или кредит): &quot;).strip().lower()&lt;/font&gt;&lt;/font&gt;&lt;div&gt;&lt;font style=&quot;vertical-align: inherit;&quot;&gt;&lt;font style=&quot;vertical-align: inherit;&quot;&gt;&amp;nbsp; &amp;nbsp; Principal = float(input(&quot;Введите основную массу: &quot;))&lt;/font&gt;&lt;/font&gt;&lt;/div&gt;&lt;div&gt;&lt;font style=&quot;vertical-align: inherit;&quot;&gt;&lt;font style=&quot;vertical-align: inherit;&quot;&gt;&amp;nbsp; &amp;nbsp; ставка = float(input(&quot;Введите процентную поставку (%): &quot;))&lt;/font&gt;&lt;/font&gt;&lt;/div&gt;&lt;div&gt;&lt;font style=&quot;vertical-align: inherit;&quot;&gt;&lt;font style=&quot;vertical-align: inherit;&quot;&gt;&amp;nbsp; &amp;nbsp; time = int(input(&quot;Введите срок (в месяцах для кредита или в месяц для вклада): &quot;))&lt;/font&gt;&lt;/font&gt;&lt;/div&gt;&lt;div&gt;&lt;br&gt;&lt;/div&gt;" style="shape=parallelogram;perimeter=parallelogramPerimeter;whiteSpace=wrap;html=1;fixedSize=1;" parent="1" vertex="1">
          <mxGeometry x="24.060000000000002" y="620" width="375.88" height="194" as="geometry" />
        </mxCell>
        <mxCell id="awSaAbgqy8fszP1SLm_e-2" style="edgeStyle=none;curved=1;rounded=0;orthogonalLoop=1;jettySize=auto;html=1;fontSize=12;startSize=8;endSize=8;" parent="1" source="awSaAbgqy8fszP1SLm_e-1" edge="1">
          <mxGeometry relative="1" as="geometry">
            <mxPoint x="200" y="315.1627197265625" as="targetPoint" />
          </mxGeometry>
        </mxCell>
        <mxCell id="awSaAbgqy8fszP1SLm_e-1" value="&lt;font style=&quot;vertical-align: inherit;&quot;&gt;&lt;font style=&quot;vertical-align: inherit;&quot;&gt;начало&lt;/font&gt;&lt;/font&gt;" style="ellipse;whiteSpace=wrap;html=1;" parent="1" vertex="1">
          <mxGeometry x="140" y="183" width="120" height="57" as="geometry" />
        </mxCell>
        <mxCell id="awSaAbgqy8fszP1SLm_e-5" value="&lt;font style=&quot;vertical-align: inherit;&quot;&gt;&lt;font style=&quot;vertical-align: inherit;&quot;&gt;&lt;font style=&quot;vertical-align: inherit;&quot;&gt;&lt;font style=&quot;vertical-align: inherit;&quot;&gt;оpeрация=вклад&lt;/font&gt;&lt;/font&gt;&lt;/font&gt;&lt;/font&gt;" style="rhombus;whiteSpace=wrap;html=1;" parent="1" vertex="1">
          <mxGeometry x="149.5" y="884" width="125" height="100" as="geometry" />
        </mxCell>
        <mxCell id="awSaAbgqy8fszP1SLm_e-11" value="" style="endArrow=none;html=1;rounded=0;fontSize=12;startSize=8;endSize=8;curved=1;entryX=1;entryY=0.5;entryDx=0;entryDy=0;" parent="1" source="npkJNN-aWgWPqx-Fla9z-3" target="awSaAbgqy8fszP1SLm_e-5" edge="1">
          <mxGeometry width="50" height="50" relative="1" as="geometry">
            <mxPoint x="506" y="934" as="sourcePoint" />
            <mxPoint x="282" y="941" as="targetPoint" />
          </mxGeometry>
        </mxCell>
        <mxCell id="awSaAbgqy8fszP1SLm_e-14" value="" style="endArrow=none;html=1;rounded=0;fontSize=12;startSize=8;endSize=8;curved=1;entryX=0;entryY=0.5;entryDx=0;entryDy=0;" parent="1" edge="1">
          <mxGeometry width="50" height="50" relative="1" as="geometry">
            <mxPoint x="142" y="936.9090909090914" as="sourcePoint" />
            <mxPoint x="152.5" y="935" as="targetPoint" />
          </mxGeometry>
        </mxCell>
        <mxCell id="awSaAbgqy8fszP1SLm_e-17" value="&lt;font style=&quot;vertical-align: inherit;&quot;&gt;&lt;font style=&quot;vertical-align: inherit;&quot;&gt;&amp;nbsp;# Расчёт для вклада&lt;/font&gt;&lt;/font&gt;&lt;div&gt;&lt;font style=&quot;vertical-align: inherit;&quot;&gt;&lt;font style=&quot;vertical-align: inherit;&quot;&gt;&amp;nbsp; &amp;nbsp; сумма = основная сумма * (1 + ставка / 100) ** время&lt;/font&gt;&lt;/font&gt;&lt;/div&gt;&lt;div&gt;&lt;font style=&quot;vertical-align: inherit;&quot;&gt;&lt;font style=&quot;vertical-align: inherit;&quot;&gt;&amp;nbsp; &amp;nbsp; сумма возврата&lt;/font&gt;&lt;/font&gt;&lt;/div&gt;" style="shape=parallelogram;perimeter=parallelogramPerimeter;whiteSpace=wrap;html=1;fixedSize=1;" parent="1" vertex="1">
          <mxGeometry x="105" y="316" width="195" height="58" as="geometry" />
        </mxCell>
        <mxCell id="awSaAbgqy8fszP1SLm_e-22" value="" style="endArrow=classic;html=1;rounded=0;fontSize=12;startSize=8;endSize=8;curved=1;" parent="1" edge="1">
          <mxGeometry width="50" height="50" relative="1" as="geometry">
            <mxPoint x="506" y="933" as="sourcePoint" />
            <mxPoint x="506" y="1217" as="targetPoint" />
          </mxGeometry>
        </mxCell>
        <mxCell id="awSaAbgqy8fszP1SLm_e-23" value="" style="endArrow=classic;html=1;rounded=0;fontSize=12;startSize=8;endSize=8;curved=1;" parent="1" edge="1">
          <mxGeometry width="50" height="50" relative="1" as="geometry">
            <mxPoint x="-86" y="938" as="sourcePoint" />
            <mxPoint x="-85" y="1219" as="targetPoint" />
          </mxGeometry>
        </mxCell>
        <mxCell id="awSaAbgqy8fszP1SLm_e-32" value="" style="edgeStyle=none;curved=1;rounded=0;orthogonalLoop=1;jettySize=auto;html=1;fontSize=12;startSize=8;endSize=8;" parent="1" source="awSaAbgqy8fszP1SLm_e-17" edge="1">
          <mxGeometry relative="1" as="geometry">
            <mxPoint x="203.57692307692298" y="471" as="targetPoint" />
            <mxPoint x="200" y="374" as="sourcePoint" />
          </mxGeometry>
        </mxCell>
        <mxCell id="awSaAbgqy8fszP1SLm_e-34" style="edgeStyle=none;curved=1;rounded=0;orthogonalLoop=1;jettySize=auto;html=1;fontSize=12;startSize=8;endSize=8;" parent="1" edge="1">
          <mxGeometry relative="1" as="geometry">
            <mxPoint x="204" y="624.5709450461645" as="targetPoint" />
            <mxPoint x="204" y="570" as="sourcePoint" />
          </mxGeometry>
        </mxCell>
        <mxCell id="mwBdrK15X9zcYXQbRbcV-3" value="&lt;font style=&quot;vertical-align: inherit;&quot;&gt;&lt;font style=&quot;vertical-align: inherit;&quot;&gt;#Расчёт по кредиту (аннуитетный платёж)&lt;/font&gt;&lt;/font&gt;&lt;div&gt;&lt;font style=&quot;vertical-align: inherit;&quot;&gt;&lt;font style=&quot;vertical-align: inherit;&quot;&gt;&amp;nbsp; &amp;nbsp; месячная_ставка = ставка / 100 / 12&lt;/font&gt;&lt;/font&gt;&lt;/div&gt;&lt;div&gt;&lt;font style=&quot;vertical-align: inherit;&quot;&gt;&lt;font style=&quot;vertical-align: inherit;&quot;&gt;&amp;nbsp; &amp;nbsp; платеж = основная сумма * (месячная_ставка * (1 + месячная_ставка) ** время) / ((1 + месячная_ставка) ** время - 1)&lt;/font&gt;&lt;/font&gt;&lt;/div&gt;&lt;div&gt;&lt;font style=&quot;vertical-align: inherit;&quot;&gt;&lt;font style=&quot;vertical-align: inherit;&quot;&gt;&amp;nbsp; &amp;nbsp; общая_сумма = оплата * время&lt;/font&gt;&lt;/font&gt;&lt;/div&gt;&lt;div&gt;&lt;font style=&quot;vertical-align: inherit;&quot;&gt;&lt;font style=&quot;vertical-align: inherit;&quot;&gt;&amp;nbsp; &amp;nbsp; вернуть общую_сумму&lt;/font&gt;&lt;/font&gt;&lt;/div&gt;" style="shape=parallelogram;perimeter=parallelogramPerimeter;whiteSpace=wrap;html=1;fixedSize=1;" parent="1" vertex="1">
          <mxGeometry x="-46.75" y="470" width="517.5" height="101" as="geometry" />
        </mxCell>
        <mxCell id="npkJNN-aWgWPqx-Fla9z-4" value="" style="endArrow=none;html=1;rounded=0;fontSize=12;startSize=8;endSize=8;curved=1;entryX=1;entryY=0.5;entryDx=0;entryDy=0;" parent="1" target="npkJNN-aWgWPqx-Fla9z-3" edge="1">
          <mxGeometry width="50" height="50" relative="1" as="geometry">
            <mxPoint x="506" y="934" as="sourcePoint" />
            <mxPoint x="275" y="934" as="targetPoint" />
          </mxGeometry>
        </mxCell>
        <mxCell id="npkJNN-aWgWPqx-Fla9z-3" value="&lt;font style=&quot;vertical-align: inherit;&quot;&gt;&lt;font style=&quot;vertical-align: inherit;&quot;&gt;да&lt;/font&gt;&lt;/font&gt;" style="text;html=1;align=center;verticalAlign=middle;resizable=0;points=[];autosize=1;strokeColor=none;fillColor=none;fontSize=16;" parent="1" vertex="1">
          <mxGeometry x="390" y="918.5" width="36" height="31" as="geometry" />
        </mxCell>
        <mxCell id="npkJNN-aWgWPqx-Fla9z-2" value="&lt;font style=&quot;vertical-align: inherit;&quot;&gt;&lt;font style=&quot;vertical-align: inherit;&quot;&gt;&lt;font style=&quot;vertical-align: inherit;&quot;&gt;&lt;font style=&quot;vertical-align: inherit;&quot;&gt;нет&lt;/font&gt;&lt;/font&gt;&lt;/font&gt;&lt;/font&gt;" style="text;html=1;align=center;verticalAlign=middle;resizable=0;points=[];autosize=1;strokeColor=none;fillColor=none;fontSize=16;" parent="1" vertex="1">
          <mxGeometry x="-89.75" y="923" width="43" height="31" as="geometry" />
        </mxCell>
        <mxCell id="npkJNN-aWgWPqx-Fla9z-6" value="&lt;font style=&quot;vertical-align: inherit;&quot;&gt;&lt;font style=&quot;vertical-align: inherit;&quot;&gt;оperation=кредит&lt;/font&gt;&lt;/font&gt;" style="rhombus;whiteSpace=wrap;html=1;" parent="1" vertex="1">
          <mxGeometry x="-165" y="1217" width="158" height="114" as="geometry" />
        </mxCell>
        <mxCell id="npkJNN-aWgWPqx-Fla9z-7" style="edgeStyle=none;curved=1;rounded=0;orthogonalLoop=1;jettySize=auto;html=1;entryX=0.5;entryY=0;entryDx=0;entryDy=0;fontSize=12;startSize=8;endSize=8;" parent="1" source="npkJNN-aWgWPqx-Fla9z-6" target="npkJNN-aWgWPqx-Fla9z-6" edge="1">
          <mxGeometry relative="1" as="geometry" />
        </mxCell>
        <mxCell id="npkJNN-aWgWPqx-Fla9z-10" value="&lt;font style=&quot;vertical-align: inherit;&quot;&gt;&lt;font style=&quot;vertical-align: inherit;&quot;&gt;еlif&lt;/font&gt;&lt;/font&gt;" style="text;html=1;align=center;verticalAlign=middle;resizable=0;points=[];autosize=1;strokeColor=none;fillColor=none;fontSize=16;" parent="1" vertex="1">
          <mxGeometry x="-184" y="1164" width="39" height="31" as="geometry" />
        </mxCell>
        <mxCell id="npkJNN-aWgWPqx-Fla9z-13" value="" style="endArrow=none;html=1;rounded=0;fontSize=12;startSize=8;endSize=8;curved=1;exitX=1;exitY=0.5;exitDx=0;exitDy=0;" parent="1" source="npkJNN-aWgWPqx-Fla9z-6" edge="1">
          <mxGeometry width="50" height="50" relative="1" as="geometry">
            <mxPoint x="6" y="1274" as="sourcePoint" />
            <mxPoint x="144" y="1277" as="targetPoint" />
          </mxGeometry>
        </mxCell>
        <mxCell id="npkJNN-aWgWPqx-Fla9z-17" value="" style="endArrow=classic;html=1;rounded=0;fontSize=12;startSize=8;endSize=8;curved=1;" parent="1" edge="1">
          <mxGeometry width="50" height="50" relative="1" as="geometry">
            <mxPoint x="144" y="1275" as="sourcePoint" />
            <mxPoint x="139.5" y="1487" as="targetPoint" />
          </mxGeometry>
        </mxCell>
        <mxCell id="npkJNN-aWgWPqx-Fla9z-18" value="" style="endArrow=none;html=1;rounded=0;fontSize=12;startSize=8;endSize=8;curved=1;entryX=0;entryY=0.5;entryDx=0;entryDy=0;" parent="1" target="npkJNN-aWgWPqx-Fla9z-6" edge="1">
          <mxGeometry width="50" height="50" relative="1" as="geometry">
            <mxPoint x="-351" y="1266" as="sourcePoint" />
            <mxPoint x="-180" y="1286" as="targetPoint" />
          </mxGeometry>
        </mxCell>
        <mxCell id="npkJNN-aWgWPqx-Fla9z-19" value="&lt;font style=&quot;vertical-align: inherit;&quot;&gt;&lt;font style=&quot;vertical-align: inherit;&quot;&gt;да&lt;/font&gt;&lt;/font&gt;" style="text;html=1;align=center;verticalAlign=middle;resizable=0;points=[];autosize=1;strokeColor=none;fillColor=none;fontSize=16;" parent="1" vertex="1">
          <mxGeometry x="24.06" y="1228" width="36" height="31" as="geometry" />
        </mxCell>
        <mxCell id="npkJNN-aWgWPqx-Fla9z-20" value="&lt;font style=&quot;vertical-align: inherit;&quot;&gt;&lt;font style=&quot;vertical-align: inherit;&quot;&gt;нет&lt;/font&gt;&lt;/font&gt;" style="text;html=1;align=center;verticalAlign=middle;resizable=0;points=[];autosize=1;strokeColor=none;fillColor=none;fontSize=16;" parent="1" vertex="1">
          <mxGeometry x="-280" y="1205.5" width="43" height="31" as="geometry" />
        </mxCell>
        <mxCell id="npkJNN-aWgWPqx-Fla9z-21" value="" style="endArrow=classic;html=1;rounded=0;fontSize=12;startSize=8;endSize=8;curved=1;" parent="1" edge="1">
          <mxGeometry width="50" height="50" relative="1" as="geometry">
            <mxPoint x="-348" y="1261" as="sourcePoint" />
            <mxPoint x="-356" y="1500" as="targetPoint" />
          </mxGeometry>
        </mxCell>
        <mxCell id="npkJNN-aWgWPqx-Fla9z-22" value="&lt;font style=&quot;vertical-align: inherit;&quot;&gt;&lt;font style=&quot;vertical-align: inherit;&quot;&gt;Итоговая сумма выплат по кредиту&lt;/font&gt;&lt;/font&gt;" style="rounded=0;whiteSpace=wrap;html=1;" parent="1" vertex="1">
          <mxGeometry x="70" y="1487" width="157" height="59" as="geometry" />
        </mxCell>
        <mxCell id="npkJNN-aWgWPqx-Fla9z-23" value="&lt;font style=&quot;vertical-align: inherit;&quot;&gt;&lt;font style=&quot;vertical-align: inherit;&quot;&gt;еlse&lt;/font&gt;&lt;/font&gt;" style="text;html=1;align=center;verticalAlign=middle;resizable=0;points=[];autosize=1;strokeColor=none;fillColor=none;fontSize=16;" parent="1" vertex="1">
          <mxGeometry x="-440" y="1414.5" width="47" height="31" as="geometry" />
        </mxCell>
        <mxCell id="npkJNN-aWgWPqx-Fla9z-24" value="&lt;font style=&quot;vertical-align: inherit;&quot;&gt;&lt;font style=&quot;vertical-align: inherit;&quot;&gt;Итоговая сумма выплат по вкладу&lt;/font&gt;&lt;/font&gt;" style="rounded=0;whiteSpace=wrap;html=1;" parent="1" vertex="1">
          <mxGeometry x="438" y="1217" width="142" height="56" as="geometry" />
        </mxCell>
        <mxCell id="npkJNN-aWgWPqx-Fla9z-26" value="&lt;font style=&quot;vertical-align: inherit;&quot;&gt;&lt;font style=&quot;vertical-align: inherit;&quot;&gt;Неверная операция. Пожалуйста, выберите &quot;вклад&quot; или &quot;кредит&quot;&amp;nbsp;&lt;/font&gt;&lt;/font&gt;" style="rounded=0;whiteSpace=wrap;html=1;" parent="1" vertex="1">
          <mxGeometry x="-426" y="1502" width="146" height="66" as="geometry" />
        </mxCell>
        <mxCell id="5WR9b2ihYP60hqQvpW78-1" value="" style="endArrow=none;html=1;rounded=0;fontSize=12;startSize=8;endSize=8;curved=1;entryX=0;entryY=0.5;entryDx=0;entryDy=0;" edge="1" parent="1" source="npkJNN-aWgWPqx-Fla9z-2">
          <mxGeometry width="50" height="50" relative="1" as="geometry">
            <mxPoint x="-47" y="938" as="sourcePoint" />
            <mxPoint x="142" y="934" as="targetPoint" />
          </mxGeometry>
        </mxCell>
        <mxCell id="5WR9b2ihYP60hqQvpW78-2" value="&lt;font style=&quot;vertical-align: inherit;&quot;&gt;&lt;font style=&quot;vertical-align: inherit;&quot;&gt;If&lt;/font&gt;&lt;/font&gt;" style="text;html=1;align=center;verticalAlign=middle;resizable=0;points=[];autosize=1;strokeColor=none;fillColor=none;fontSize=16;" vertex="1" parent="1">
          <mxGeometry x="129.5" y="832.5" width="29" height="31" as="geometry" />
        </mxCell>
      </root>
    </mxGraphModel>
  </diagram>
  <diagram id="8rqJFjuprX77u7LhcAXL" name="Страница — 4">
    <mxGraphModel dx="1052" dy="1614" grid="0" gridSize="10" guides="1" tooltips="1" connect="1" arrows="1" fold="1" page="0" pageScale="1" pageWidth="827" pageHeight="1169" math="0" shadow="0">
      <root>
        <mxCell id="0" />
        <mxCell id="1" parent="0" />
        <mxCell id="RwtRQQgW3wRTEWdKxUJb-30" value="" style="endArrow=classic;html=1;rounded=0;fontSize=12;startSize=8;endSize=8;curved=1;entryX=0;entryY=0.5;entryDx=0;entryDy=0;" parent="1" target="RwtRQQgW3wRTEWdKxUJb-10" edge="1">
          <mxGeometry width="50" height="50" relative="1" as="geometry">
            <mxPoint x="-29" y="815" as="sourcePoint" />
            <mxPoint x="272" y="863" as="targetPoint" />
          </mxGeometry>
        </mxCell>
        <mxCell id="RYYp9kcFPD2RK0xkYhhW-6" style="edgeStyle=none;curved=1;rounded=0;orthogonalLoop=1;jettySize=auto;html=1;entryX=0.5;entryY=0;entryDx=0;entryDy=0;fontSize=12;startSize=8;endSize=8;" parent="1" source="VCk8UnD2_4j6UDti74ub-1" target="VCk8UnD2_4j6UDti74ub-3" edge="1">
          <mxGeometry relative="1" as="geometry" />
        </mxCell>
        <mxCell id="VCk8UnD2_4j6UDti74ub-1" value="&lt;font style=&quot;vertical-align: inherit;&quot;&gt;&lt;font style=&quot;vertical-align: inherit;&quot;&gt;&lt;font style=&quot;vertical-align: inherit;&quot;&gt;&lt;font style=&quot;vertical-align: inherit;&quot;&gt;начало&lt;/font&gt;&lt;/font&gt;&lt;/font&gt;&lt;/font&gt;" style="ellipse;whiteSpace=wrap;html=1;" parent="1" vertex="1">
          <mxGeometry x="140" y="-4" width="120" height="47" as="geometry" />
        </mxCell>
        <mxCell id="VCk8UnD2_4j6UDti74ub-4" style="edgeStyle=none;curved=1;rounded=0;orthogonalLoop=1;jettySize=auto;html=1;fontSize=12;startSize=8;endSize=8;" parent="1" source="VCk8UnD2_4j6UDti74ub-3" edge="1">
          <mxGeometry relative="1" as="geometry">
            <mxPoint x="199.5" y="445.13370768229174" as="targetPoint" />
          </mxGeometry>
        </mxCell>
        <mxCell id="VCk8UnD2_4j6UDti74ub-3" value="&lt;font style=&quot;vertical-align: inherit;&quot;&gt;&lt;font style=&quot;vertical-align: inherit;&quot;&gt;&lt;font style=&quot;vertical-align: inherit;&quot;&gt;&lt;font style=&quot;vertical-align: inherit;&quot;&gt;&amp;nbsp;&lt;/font&gt;&lt;/font&gt;&lt;/font&gt;&lt;/font&gt;&lt;div&gt;&lt;font style=&quot;vertical-align: inherit;&quot;&gt;&lt;font style=&quot;vertical-align: inherit;&quot;&gt;&lt;font style=&quot;vertical-align: inherit;&quot;&gt;&lt;font style=&quot;vertical-align: inherit;&quot;&gt;&amp;nbsp; &amp;nbsp; месячная_процентная_ставка = годовая_процентная_ставка / 12 / 100&lt;/font&gt;&lt;/font&gt;&lt;/font&gt;&lt;/font&gt;&lt;/div&gt;&lt;div&gt;&lt;br&gt;&lt;/div&gt;&lt;div&gt;&lt;font style=&quot;vertical-align: inherit;&quot;&gt;&lt;font style=&quot;vertical-align: inherit;&quot;&gt;&lt;font style=&quot;vertical-align: inherit;&quot;&gt;&lt;font style=&quot;vertical-align: inherit;&quot;&gt;&amp;nbsp; &amp;nbsp;&amp;nbsp;&lt;/font&gt;&lt;/font&gt;&lt;/font&gt;&lt;/font&gt;&lt;/div&gt;&lt;div&gt;&lt;font style=&quot;vertical-align: inherit;&quot;&gt;&lt;font style=&quot;vertical-align: inherit;&quot;&gt;&lt;font style=&quot;vertical-align: inherit;&quot;&gt;&lt;font style=&quot;vertical-align: inherit;&quot;&gt;&amp;nbsp; &amp;nbsp; срок_кредита_месяцы = срок_кредита_годы * 12&lt;/font&gt;&lt;/font&gt;&lt;/font&gt;&lt;/font&gt;&lt;/div&gt;&lt;div&gt;&lt;br&gt;&lt;/div&gt;&lt;div&gt;&lt;font style=&quot;vertical-align: inherit;&quot;&gt;&lt;font style=&quot;vertical-align: inherit;&quot;&gt;&lt;font style=&quot;vertical-align: inherit;&quot;&gt;&lt;font style=&quot;vertical-align: inherit;&quot;&gt;&amp;nbsp; &amp;nbsp;&amp;nbsp;&lt;/font&gt;&lt;/font&gt;&lt;/font&gt;&lt;/font&gt;&lt;/div&gt;" style="shape=parallelogram;perimeter=parallelogramPerimeter;whiteSpace=wrap;html=1;fixedSize=1;" parent="1" vertex="1">
          <mxGeometry x="39" y="138" width="322" height="155" as="geometry" />
        </mxCell>
        <mxCell id="4qRtG2rezkWN0JuYwX3j-1" value="&lt;font style=&quot;vertical-align: inherit;&quot;&gt;&lt;font style=&quot;vertical-align: inherit;&quot;&gt;ежемесячная_процентная_ставка == 0:&lt;/font&gt;&lt;/font&gt;&lt;div&gt;&lt;font style=&quot;vertical-align: inherit;&quot;&gt;&lt;font style=&quot;vertical-align: inherit;&quot;&gt;&amp;nbsp; &amp;nbsp; &amp;nbsp; &amp;nbsp; ежемесячный_платеж = основная сумма&lt;/font&gt;&lt;/font&gt;&lt;/div&gt;" style="rhombus;whiteSpace=wrap;html=1;" parent="1" vertex="1">
          <mxGeometry x="71" y="443" width="258" height="166" as="geometry" />
        </mxCell>
        <mxCell id="mWp04Yva83qq5p9qBYV7-4" value="" style="endArrow=none;html=1;rounded=0;fontSize=12;startSize=8;endSize=8;curved=1;entryX=0;entryY=0.5;entryDx=0;entryDy=0;" parent="1" source="RYYp9kcFPD2RK0xkYhhW-2" edge="1">
          <mxGeometry width="50" height="50" relative="1" as="geometry">
            <mxPoint x="-68" y="526" as="sourcePoint" />
            <mxPoint x="73" y="526" as="targetPoint" />
          </mxGeometry>
        </mxCell>
        <mxCell id="mWp04Yva83qq5p9qBYV7-5" value="" style="endArrow=classic;html=1;rounded=0;fontSize=12;startSize=8;endSize=8;curved=1;" parent="1" edge="1">
          <mxGeometry width="50" height="50" relative="1" as="geometry">
            <mxPoint x="-67" y="526" as="sourcePoint" />
            <mxPoint x="-70" y="720" as="targetPoint" />
          </mxGeometry>
        </mxCell>
        <mxCell id="RYYp9kcFPD2RK0xkYhhW-3" value="&lt;font style=&quot;vertical-align: inherit;&quot;&gt;&lt;font style=&quot;vertical-align: inherit;&quot;&gt;&lt;font style=&quot;vertical-align: inherit;&quot;&gt;&lt;font style=&quot;vertical-align: inherit;&quot;&gt;If&lt;/font&gt;&lt;/font&gt;&lt;/font&gt;&lt;/font&gt;" style="text;html=1;align=center;verticalAlign=middle;resizable=0;points=[];autosize=1;strokeColor=none;fillColor=none;fontSize=16;" parent="1" vertex="1">
          <mxGeometry x="95" y="370" width="29" height="31" as="geometry" />
        </mxCell>
        <mxCell id="RYYp9kcFPD2RK0xkYhhW-9" value="" style="endArrow=none;html=1;rounded=0;fontSize=12;startSize=8;endSize=8;curved=1;exitX=1;exitY=0.5;exitDx=0;exitDy=0;" parent="1" source="RYYp9kcFPD2RK0xkYhhW-15" edge="1">
          <mxGeometry width="50" height="50" relative="1" as="geometry">
            <mxPoint x="329" y="526" as="sourcePoint" />
            <mxPoint x="465" y="526" as="targetPoint" />
          </mxGeometry>
        </mxCell>
        <mxCell id="RYYp9kcFPD2RK0xkYhhW-13" value="" style="endArrow=none;html=1;rounded=0;fontSize=12;startSize=8;endSize=8;curved=1;entryX=0;entryY=0.5;entryDx=0;entryDy=0;" parent="1" target="RYYp9kcFPD2RK0xkYhhW-2" edge="1">
          <mxGeometry width="50" height="50" relative="1" as="geometry">
            <mxPoint x="-68" y="526" as="sourcePoint" />
            <mxPoint x="73" y="526" as="targetPoint" />
          </mxGeometry>
        </mxCell>
        <mxCell id="RYYp9kcFPD2RK0xkYhhW-2" value="&lt;font style=&quot;vertical-align: inherit;&quot;&gt;&lt;font style=&quot;vertical-align: inherit;&quot;&gt;нет&lt;/font&gt;&lt;/font&gt;" style="text;html=1;align=center;verticalAlign=middle;resizable=0;points=[];autosize=1;strokeColor=none;fillColor=none;fontSize=16;" parent="1" vertex="1">
          <mxGeometry x="-7" y="508" width="43" height="31" as="geometry" />
        </mxCell>
        <mxCell id="RYYp9kcFPD2RK0xkYhhW-14" value="" style="endArrow=classic;html=1;rounded=0;fontSize=12;startSize=8;endSize=8;curved=1;" parent="1" edge="1">
          <mxGeometry width="50" height="50" relative="1" as="geometry">
            <mxPoint x="466" y="520" as="sourcePoint" />
            <mxPoint x="466" y="760" as="targetPoint" />
          </mxGeometry>
        </mxCell>
        <mxCell id="RYYp9kcFPD2RK0xkYhhW-16" value="" style="endArrow=none;html=1;rounded=0;fontSize=12;startSize=8;endSize=8;curved=1;exitX=1;exitY=0.5;exitDx=0;exitDy=0;" parent="1" source="4qRtG2rezkWN0JuYwX3j-1" target="RYYp9kcFPD2RK0xkYhhW-15" edge="1">
          <mxGeometry width="50" height="50" relative="1" as="geometry">
            <mxPoint x="329" y="526" as="sourcePoint" />
            <mxPoint x="465" y="526" as="targetPoint" />
          </mxGeometry>
        </mxCell>
        <mxCell id="RYYp9kcFPD2RK0xkYhhW-15" value="&lt;font style=&quot;vertical-align: inherit;&quot;&gt;&lt;font style=&quot;vertical-align: inherit;&quot;&gt;да&lt;/font&gt;&lt;/font&gt;" style="text;html=1;align=center;verticalAlign=middle;resizable=0;points=[];autosize=1;strokeColor=none;fillColor=none;fontSize=16;" parent="1" vertex="1">
          <mxGeometry x="393" y="510.5" width="36" height="31" as="geometry" />
        </mxCell>
        <mxCell id="RwtRQQgW3wRTEWdKxUJb-1" value="&lt;font style=&quot;vertical-align: inherit;&quot;&gt;&lt;font style=&quot;vertical-align: inherit;&quot;&gt;ежемесячный_платеж = (основная_сумма * ежемесячная_процентная_ставка) / (1 - (1 + ежемесячная_процентная_ставка) ** -срок_кредита_месяцы)&lt;/font&gt;&lt;/font&gt;&lt;div&gt;&lt;br&gt;&lt;/div&gt;" style="rounded=0;whiteSpace=wrap;html=1;" parent="1" vertex="1">
          <mxGeometry x="-195" y="719" width="281" height="67" as="geometry" />
        </mxCell>
        <mxCell id="RwtRQQgW3wRTEWdKxUJb-3" value="&lt;font style=&quot;vertical-align: inherit;&quot;&gt;&lt;font style=&quot;vertical-align: inherit;&quot;&gt;еlse&lt;/font&gt;&lt;/font&gt;" style="text;html=1;align=center;verticalAlign=middle;resizable=0;points=[];autosize=1;strokeColor=none;fillColor=none;fontSize=16;" parent="1" vertex="1">
          <mxGeometry x="-137" y="582.5" width="47" height="31" as="geometry" />
        </mxCell>
        <mxCell id="RwtRQQgW3wRTEWdKxUJb-5" value="" style="endArrow=none;html=1;rounded=0;fontSize=12;startSize=8;endSize=8;curved=1;" parent="1" edge="1">
          <mxGeometry width="50" height="50" relative="1" as="geometry">
            <mxPoint x="-63" y="789" as="sourcePoint" />
            <mxPoint x="-60" y="917" as="targetPoint" />
          </mxGeometry>
        </mxCell>
        <mxCell id="RwtRQQgW3wRTEWdKxUJb-6" value="" style="endArrow=none;html=1;rounded=0;fontSize=12;startSize=8;endSize=8;curved=1;" parent="1" edge="1">
          <mxGeometry width="50" height="50" relative="1" as="geometry">
            <mxPoint x="-280" y="919" as="sourcePoint" />
            <mxPoint x="-59" y="919" as="targetPoint" />
          </mxGeometry>
        </mxCell>
        <mxCell id="RwtRQQgW3wRTEWdKxUJb-8" value="" style="endArrow=none;html=1;rounded=0;fontSize=12;startSize=8;endSize=8;curved=1;" parent="1" edge="1">
          <mxGeometry width="50" height="50" relative="1" as="geometry">
            <mxPoint x="-278" y="920" as="sourcePoint" />
            <mxPoint x="-283" y="221" as="targetPoint" />
          </mxGeometry>
        </mxCell>
        <mxCell id="RwtRQQgW3wRTEWdKxUJb-9" value="" style="endArrow=classic;html=1;rounded=0;fontSize=12;startSize=8;endSize=8;curved=1;entryX=0;entryY=0.5;entryDx=0;entryDy=0;" parent="1" target="VCk8UnD2_4j6UDti74ub-3" edge="1">
          <mxGeometry width="50" height="50" relative="1" as="geometry">
            <mxPoint x="-289" y="222" as="sourcePoint" />
            <mxPoint x="33" y="226" as="targetPoint" />
          </mxGeometry>
        </mxCell>
        <mxCell id="RwtRQQgW3wRTEWdKxUJb-11" style="edgeStyle=none;curved=1;rounded=0;orthogonalLoop=1;jettySize=auto;html=1;fontSize=12;startSize=8;endSize=8;" parent="1" source="RwtRQQgW3wRTEWdKxUJb-10" edge="1">
          <mxGeometry relative="1" as="geometry">
            <mxPoint x="472" y="1042.553970336914" as="targetPoint" />
          </mxGeometry>
        </mxCell>
        <mxCell id="RwtRQQgW3wRTEWdKxUJb-10" value="&lt;font style=&quot;vertical-align: inherit;&quot;&gt;&lt;font style=&quot;vertical-align: inherit;&quot;&gt;&lt;font style=&quot;vertical-align: inherit;&quot;&gt;&lt;font style=&quot;vertical-align: inherit;&quot;&gt;&lt;font style=&quot;vertical-align: inherit;&quot;&gt;&lt;font style=&quot;vertical-align: inherit;&quot;&gt;Principal = float(input(&quot;Введите сумму кредита: &quot;))&lt;/font&gt;&lt;/font&gt;&lt;/font&gt;&lt;/font&gt;&lt;/font&gt;&lt;/font&gt;&lt;div&gt;&lt;font style=&quot;vertical-align: inherit;&quot;&gt;&lt;font style=&quot;vertical-align: inherit;&quot;&gt;&lt;font style=&quot;vertical-align: inherit;&quot;&gt;&lt;font style=&quot;vertical-align: inherit;&quot;&gt;&lt;font style=&quot;vertical-align: inherit;&quot;&gt;&lt;font style=&quot;vertical-align: inherit;&quot;&gt;Annual_interest_rate = float(input(&quot;Введите годовую процентную поставку (%): &quot;))&lt;/font&gt;&lt;/font&gt;&lt;/font&gt;&lt;/font&gt;&lt;/font&gt;&lt;/font&gt;&lt;/div&gt;&lt;div&gt;&lt;font style=&quot;vertical-align: inherit;&quot;&gt;&lt;font style=&quot;vertical-align: inherit;&quot;&gt;&lt;font style=&quot;vertical-align: inherit;&quot;&gt;&lt;font style=&quot;vertical-align: inherit;&quot;&gt;&lt;font style=&quot;vertical-align: inherit;&quot;&gt;&lt;font style=&quot;vertical-align: inherit;&quot;&gt;Credit_term_years = int(input(&quot;Введите срок кредита (в формате): &quot;))&lt;/font&gt;&lt;/font&gt;&lt;/font&gt;&lt;/font&gt;&lt;/font&gt;&lt;/font&gt;&lt;/div&gt;&lt;div&gt;&lt;br&gt;&lt;/div&gt;&lt;div&gt;&lt;font style=&quot;vertical-align: inherit;&quot;&gt;&lt;font style=&quot;vertical-align: inherit;&quot;&gt;&lt;font style=&quot;vertical-align: inherit;&quot;&gt;&lt;font style=&quot;vertical-align: inherit;&quot;&gt;&lt;font style=&quot;vertical-align: inherit;&quot;&gt;&lt;font style=&quot;vertical-align: inherit;&quot;&gt;ежемесячный_платеж = внешний_жемесячный_платеж&lt;/font&gt;&lt;/font&gt;&lt;/font&gt;&lt;/font&gt;&lt;/font&gt;&lt;/font&gt;&lt;/div&gt;" style="shape=parallelogram;perimeter=parallelogramPerimeter;whiteSpace=wrap;html=1;fixedSize=1;" parent="1" vertex="1">
          <mxGeometry x="274" y="762" width="396" height="106" as="geometry" />
        </mxCell>
        <mxCell id="RwtRQQgW3wRTEWdKxUJb-12" value="&lt;font style=&quot;vertical-align: inherit;&quot;&gt;&lt;font style=&quot;vertical-align: inherit;&quot;&gt;ежемесячный_платеж &amp;gt; 0:&lt;/font&gt;&lt;/font&gt;" style="rhombus;whiteSpace=wrap;html=1;" parent="1" vertex="1">
          <mxGeometry x="336" y="1044" width="272" height="178" as="geometry" />
        </mxCell>
        <mxCell id="RwtRQQgW3wRTEWdKxUJb-13" value="&lt;font style=&quot;vertical-align: inherit;&quot;&gt;&lt;font style=&quot;vertical-align: inherit;&quot;&gt;If&lt;/font&gt;&lt;/font&gt;" style="text;html=1;align=center;verticalAlign=middle;resizable=0;points=[];autosize=1;strokeColor=none;fillColor=none;fontSize=16;" parent="1" vertex="1">
          <mxGeometry x="367" y="993.5" width="29" height="31" as="geometry" />
        </mxCell>
        <mxCell id="RwtRQQgW3wRTEWdKxUJb-14" value="" style="endArrow=none;html=1;rounded=0;fontSize=12;startSize=8;endSize=8;curved=1;exitX=1;exitY=0.5;exitDx=0;exitDy=0;" parent="1" source="RwtRQQgW3wRTEWdKxUJb-16" edge="1">
          <mxGeometry width="50" height="50" relative="1" as="geometry">
            <mxPoint x="622" y="1126" as="sourcePoint" />
            <mxPoint x="858" y="1131" as="targetPoint" />
          </mxGeometry>
        </mxCell>
        <mxCell id="RwtRQQgW3wRTEWdKxUJb-15" value="" style="endArrow=none;html=1;rounded=0;fontSize=12;startSize=8;endSize=8;curved=1;entryX=0;entryY=0.5;entryDx=0;entryDy=0;" parent="1" source="RwtRQQgW3wRTEWdKxUJb-18" target="RwtRQQgW3wRTEWdKxUJb-12" edge="1">
          <mxGeometry width="50" height="50" relative="1" as="geometry">
            <mxPoint x="80" y="1145" as="sourcePoint" />
            <mxPoint x="328" y="1138" as="targetPoint" />
          </mxGeometry>
        </mxCell>
        <mxCell id="RwtRQQgW3wRTEWdKxUJb-19" value="" style="endArrow=none;html=1;rounded=0;fontSize=12;startSize=8;endSize=8;curved=1;entryX=0;entryY=0.5;entryDx=0;entryDy=0;" parent="1" target="RwtRQQgW3wRTEWdKxUJb-18" edge="1">
          <mxGeometry width="50" height="50" relative="1" as="geometry">
            <mxPoint x="72" y="1130" as="sourcePoint" />
            <mxPoint x="336" y="1133" as="targetPoint" />
          </mxGeometry>
        </mxCell>
        <mxCell id="RwtRQQgW3wRTEWdKxUJb-18" value="&lt;font style=&quot;vertical-align: inherit;&quot;&gt;&lt;font style=&quot;vertical-align: inherit;&quot;&gt;нет&lt;/font&gt;&lt;/font&gt;" style="text;html=1;align=center;verticalAlign=middle;resizable=0;points=[];autosize=1;strokeColor=none;fillColor=none;fontSize=16;" parent="1" vertex="1">
          <mxGeometry x="157" y="1114" width="43" height="31" as="geometry" />
        </mxCell>
        <mxCell id="RwtRQQgW3wRTEWdKxUJb-20" value="" style="endArrow=none;html=1;rounded=0;fontSize=12;startSize=8;endSize=8;curved=1;exitX=1;exitY=0.5;exitDx=0;exitDy=0;" parent="1" source="RwtRQQgW3wRTEWdKxUJb-12" target="RwtRQQgW3wRTEWdKxUJb-16" edge="1">
          <mxGeometry width="50" height="50" relative="1" as="geometry">
            <mxPoint x="608" y="1133" as="sourcePoint" />
            <mxPoint x="858" y="1131" as="targetPoint" />
          </mxGeometry>
        </mxCell>
        <mxCell id="RwtRQQgW3wRTEWdKxUJb-16" value="&lt;font style=&quot;vertical-align: inherit;&quot;&gt;&lt;font style=&quot;vertical-align: inherit;&quot;&gt;&lt;font style=&quot;vertical-align: inherit;&quot;&gt;&lt;font style=&quot;vertical-align: inherit;&quot;&gt;да&lt;/font&gt;&lt;/font&gt;&lt;/font&gt;&lt;/font&gt;" style="text;html=1;align=center;verticalAlign=middle;resizable=0;points=[];autosize=1;strokeColor=none;fillColor=none;fontSize=16;" parent="1" vertex="1">
          <mxGeometry x="704" y="1117.5" width="36" height="31" as="geometry" />
        </mxCell>
        <mxCell id="RwtRQQgW3wRTEWdKxUJb-21" value="" style="endArrow=classic;html=1;rounded=0;fontSize=12;startSize=8;endSize=8;curved=1;" parent="1" edge="1">
          <mxGeometry width="50" height="50" relative="1" as="geometry">
            <mxPoint x="860" y="1127" as="sourcePoint" />
            <mxPoint x="860" y="1501" as="targetPoint" />
          </mxGeometry>
        </mxCell>
        <mxCell id="RwtRQQgW3wRTEWdKxUJb-22" value="" style="endArrow=classic;html=1;rounded=0;fontSize=12;startSize=8;endSize=8;curved=1;" parent="1" edge="1">
          <mxGeometry width="50" height="50" relative="1" as="geometry">
            <mxPoint x="71" y="1127" as="sourcePoint" />
            <mxPoint x="71" y="1477" as="targetPoint" />
          </mxGeometry>
        </mxCell>
        <mxCell id="RwtRQQgW3wRTEWdKxUJb-24" value="&lt;font style=&quot;vertical-align: inherit;&quot;&gt;&lt;font style=&quot;vertical-align: inherit;&quot;&gt;&lt;font style=&quot;vertical-align: inherit;&quot;&gt;&lt;font style=&quot;vertical-align: inherit;&quot;&gt;&lt;font style=&quot;vertical-align: inherit;&quot;&gt;&lt;font style=&quot;vertical-align: inherit;&quot;&gt;&lt;font style=&quot;vertical-align: inherit;&quot;&gt;&lt;font style=&quot;vertical-align: inherit;&quot;&gt;&lt;font style=&quot;vertical-align: inherit;&quot;&gt;&lt;font style=&quot;vertical-align: inherit;&quot;&gt;Ежемесячный платеж: {monthly_pay:.2f} руб.&lt;/font&gt;&lt;/font&gt;&lt;/font&gt;&lt;/font&gt;&lt;/font&gt;&lt;/font&gt;&lt;/font&gt;&lt;/font&gt;&lt;/font&gt;&lt;/font&gt;&lt;span style=&quot;background-color: transparent; color: light-dark(rgb(0, 0, 0), rgb(255, 255, 255));&quot;&gt;&lt;font style=&quot;vertical-align: inherit;&quot;&gt;&lt;font style=&quot;vertical-align: inherit;&quot;&gt;&lt;font style=&quot;vertical-align: inherit;&quot;&gt;&lt;font style=&quot;vertical-align: inherit;&quot;&gt; :&lt;/font&gt;&lt;/font&gt;&lt;/font&gt;&lt;/font&gt;&lt;/span&gt;" style="rounded=0;whiteSpace=wrap;html=1;" parent="1" vertex="1">
          <mxGeometry x="752" y="1500" width="204" height="114" as="geometry" />
        </mxCell>
        <mxCell id="RwtRQQgW3wRTEWdKxUJb-25" value="&lt;font style=&quot;vertical-align: inherit;&quot;&gt;&lt;font style=&quot;vertical-align: inherit;&quot;&gt;&lt;font style=&quot;vertical-align: inherit;&quot;&gt;&lt;font style=&quot;vertical-align: inherit;&quot;&gt;Ошибка в расчётах.Проверьте введенные данные.&amp;nbsp;&lt;/font&gt;&lt;/font&gt;&lt;/font&gt;&lt;/font&gt;" style="rounded=0;whiteSpace=wrap;html=1;" parent="1" vertex="1">
          <mxGeometry x="-7" y="1479" width="157" height="63" as="geometry" />
        </mxCell>
        <mxCell id="RwtRQQgW3wRTEWdKxUJb-26" value="" style="endArrow=none;html=1;rounded=0;fontSize=12;startSize=8;endSize=8;curved=1;" parent="1" edge="1">
          <mxGeometry width="50" height="50" relative="1" as="geometry">
            <mxPoint x="76" y="1545" as="sourcePoint" />
            <mxPoint x="76" y="1767" as="targetPoint" />
          </mxGeometry>
        </mxCell>
        <mxCell id="RwtRQQgW3wRTEWdKxUJb-27" value="" style="endArrow=none;html=1;rounded=0;fontSize=12;startSize=8;endSize=8;curved=1;" parent="1" edge="1">
          <mxGeometry width="50" height="50" relative="1" as="geometry">
            <mxPoint x="-51" y="1765" as="sourcePoint" />
            <mxPoint x="76" y="1765" as="targetPoint" />
          </mxGeometry>
        </mxCell>
        <mxCell id="RwtRQQgW3wRTEWdKxUJb-28" value="" style="endArrow=none;html=1;rounded=0;fontSize=12;startSize=8;endSize=8;curved=1;" parent="1" edge="1">
          <mxGeometry width="50" height="50" relative="1" as="geometry">
            <mxPoint x="-51" y="1763" as="sourcePoint" />
            <mxPoint x="-31" y="812" as="targetPoint" />
          </mxGeometry>
        </mxCell>
      </root>
    </mxGraphModel>
  </diagram>
  <diagram id="y10cAkZoSk7lPKuOAuN4" name="Страница — 5">
    <mxGraphModel dx="683" dy="528" grid="0" gridSize="10" guides="1" tooltips="1" connect="1" arrows="1" fold="1" page="0" pageScale="1" pageWidth="827" pageHeight="1169" math="0" shadow="0">
      <root>
        <mxCell id="0" />
        <mxCell id="1" parent="0" />
        <mxCell id="nIQ2UmzU8JWMRXX0RVoT-2" style="edgeStyle=none;curved=1;rounded=0;orthogonalLoop=1;jettySize=auto;html=1;fontSize=12;startSize=8;endSize=8;" parent="1" source="nIQ2UmzU8JWMRXX0RVoT-1" edge="1">
          <mxGeometry relative="1" as="geometry">
            <mxPoint x="200" y="310" as="targetPoint" />
          </mxGeometry>
        </mxCell>
        <mxCell id="nIQ2UmzU8JWMRXX0RVoT-1" value="&lt;font style=&quot;vertical-align: inherit;&quot;&gt;&lt;font style=&quot;vertical-align: inherit;&quot;&gt;начало&lt;/font&gt;&lt;/font&gt;" style="ellipse;whiteSpace=wrap;html=1;" parent="1" vertex="1">
          <mxGeometry x="140" y="160" width="120" height="80" as="geometry" />
        </mxCell>
        <mxCell id="nIQ2UmzU8JWMRXX0RVoT-10" value="&lt;font style=&quot;vertical-align: inherit;&quot;&gt;&lt;font style=&quot;vertical-align: inherit;&quot;&gt;def calculate_investment_return(начальная_сумма, конечная_сумма, инвестиционный_период_лет):&lt;/font&gt;&lt;/font&gt;" style="shape=parallelogram;perimeter=parallelogramPerimeter;whiteSpace=wrap;html=1;fixedSize=1;" parent="1" vertex="1">
          <mxGeometry x="50" y="308" width="303" height="71" as="geometry" />
        </mxCell>
        <mxCell id="nIQ2UmzU8JWMRXX0RVoT-26" style="edgeStyle=none;curved=1;rounded=0;orthogonalLoop=1;jettySize=auto;html=1;fontSize=12;startSize=8;endSize=8;" parent="1" source="nIQ2UmzU8JWMRXX0RVoT-7" edge="1">
          <mxGeometry relative="1" as="geometry">
            <mxPoint x="201.5" y="895.50156471946" as="targetPoint" />
          </mxGeometry>
        </mxCell>
        <mxCell id="nIQ2UmzU8JWMRXX0RVoT-7" value="&lt;font style=&quot;vertical-align: inherit;&quot;&gt;&lt;font style=&quot;vertical-align: inherit;&quot;&gt;&lt;font style=&quot;vertical-align: inherit;&quot;&gt;&lt;font style=&quot;vertical-align: inherit;&quot;&gt;если начальная_сумма &amp;lt;= 0 или конечная_сумма &amp;lt; 0 или investment_period_years&lt;/font&gt;&lt;/font&gt;&lt;/font&gt;&lt;/font&gt;" style="rhombus;whiteSpace=wrap;html=1;" parent="1" vertex="1">
          <mxGeometry x="-6" y="562" width="415" height="174" as="geometry" />
        </mxCell>
        <mxCell id="nIQ2UmzU8JWMRXX0RVoT-25" value="&lt;font style=&quot;vertical-align: inherit;&quot;&gt;&lt;font style=&quot;vertical-align: inherit;&quot;&gt;&lt;font style=&quot;vertical-align: inherit;&quot;&gt;&lt;font style=&quot;vertical-align: inherit;&quot;&gt;IF&lt;/font&gt;&lt;/font&gt;&lt;/font&gt;&lt;/font&gt;" style="text;html=1;align=center;verticalAlign=middle;resizable=0;points=[];autosize=1;strokeColor=none;fillColor=none;fontSize=16;" parent="1" vertex="1">
          <mxGeometry x="97" y="530.5" width="32" height="31" as="geometry" />
        </mxCell>
        <mxCell id="nIQ2UmzU8JWMRXX0RVoT-27" value="&lt;font style=&quot;vertical-align: inherit;&quot;&gt;&lt;font style=&quot;vertical-align: inherit;&quot;&gt;гeturn false&lt;/font&gt;&lt;/font&gt;" style="rounded=0;whiteSpace=wrap;html=1;" parent="1" vertex="1">
          <mxGeometry x="126" y="897" width="151" height="70" as="geometry" />
        </mxCell>
        <mxCell id="nIQ2UmzU8JWMRXX0RVoT-28" value="&lt;font style=&quot;vertical-align: inherit;&quot;&gt;&lt;font style=&quot;vertical-align: inherit;&quot;&gt;да&lt;/font&gt;&lt;/font&gt;" style="text;html=1;align=center;verticalAlign=middle;resizable=0;points=[];autosize=1;strokeColor=none;fillColor=none;fontSize=16;" parent="1" vertex="1">
          <mxGeometry x="136" y="793" width="36" height="31" as="geometry" />
        </mxCell>
        <mxCell id="nIQ2UmzU8JWMRXX0RVoT-30" value="" style="edgeStyle=none;curved=1;rounded=0;orthogonalLoop=1;jettySize=auto;html=1;fontSize=12;startSize=8;endSize=8;entryX=0.5;entryY=0;entryDx=0;entryDy=0;exitX=0.5;exitY=1;exitDx=0;exitDy=0;" parent="1" source="nIQ2UmzU8JWMRXX0RVoT-10" target="nIQ2UmzU8JWMRXX0RVoT-7" edge="1">
          <mxGeometry relative="1" as="geometry">
            <mxPoint x="202" y="562" as="targetPoint" />
            <mxPoint x="202" y="379" as="sourcePoint" />
          </mxGeometry>
        </mxCell>
        <mxCell id="nIQ2UmzU8JWMRXX0RVoT-29" value="&lt;font style=&quot;vertical-align: inherit;&quot;&gt;&lt;font style=&quot;vertical-align: inherit;&quot;&gt;# Проверка на корректность данных&lt;/font&gt;&lt;/font&gt;" style="text;html=1;align=center;verticalAlign=middle;resizable=0;points=[];autosize=1;strokeColor=none;fillColor=none;fontSize=16;" parent="1" vertex="1">
          <mxGeometry x="-93" y="439" width="296" height="31" as="geometry" />
        </mxCell>
        <mxCell id="nIQ2UmzU8JWMRXX0RVoT-32" value="" style="endArrow=classic;html=1;rounded=0;fontSize=12;startSize=8;endSize=8;curved=1;" parent="1" edge="1">
          <mxGeometry width="50" height="50" relative="1" as="geometry">
            <mxPoint x="744" y="354" as="sourcePoint" />
            <mxPoint x="739" y="839" as="targetPoint" />
          </mxGeometry>
        </mxCell>
        <mxCell id="nIQ2UmzU8JWMRXX0RVoT-34" value="&lt;font style=&quot;vertical-align: inherit;&quot;&gt;&lt;font style=&quot;vertical-align: inherit;&quot;&gt;# Расчёт доходности&lt;/font&gt;&lt;/font&gt;" style="text;html=1;align=center;verticalAlign=middle;resizable=0;points=[];autosize=1;strokeColor=none;fillColor=none;fontSize=16;" parent="1" vertex="1">
          <mxGeometry x="764" y="598" width="176" height="31" as="geometry" />
        </mxCell>
        <mxCell id="nIQ2UmzU8JWMRXX0RVoT-35" value="&lt;font style=&quot;vertical-align: inherit;&quot;&gt;&lt;font style=&quot;vertical-align: inherit;&quot;&gt;If&lt;/font&gt;&lt;/font&gt;" style="text;html=1;align=center;verticalAlign=middle;resizable=0;points=[];autosize=1;strokeColor=none;fillColor=none;fontSize=16;" parent="1" vertex="1">
          <mxGeometry x="637" y="790.5" width="29" height="31" as="geometry" />
        </mxCell>
        <mxCell id="2Xozx0Ubb1pG0hsM84Ng-2" value="" style="endArrow=none;html=1;rounded=0;fontSize=12;startSize=8;endSize=8;curved=1;entryX=0;entryY=0.5;entryDx=0;entryDy=0;" parent="1" target="nIQ2UmzU8JWMRXX0RVoT-33" edge="1">
          <mxGeometry width="50" height="50" relative="1" as="geometry">
            <mxPoint x="419" y="975" as="sourcePoint" />
            <mxPoint x="510" y="1047" as="targetPoint" />
          </mxGeometry>
        </mxCell>
        <mxCell id="2Xozx0Ubb1pG0hsM84Ng-4" value="" style="endArrow=classic;html=1;rounded=0;fontSize=12;startSize=8;endSize=8;curved=1;" parent="1" edge="1">
          <mxGeometry width="50" height="50" relative="1" as="geometry">
            <mxPoint x="419" y="972" as="sourcePoint" />
            <mxPoint x="419" y="1577" as="targetPoint" />
          </mxGeometry>
        </mxCell>
        <mxCell id="2Xozx0Ubb1pG0hsM84Ng-5" value="&lt;font style=&quot;vertical-align: inherit;&quot;&gt;&lt;font style=&quot;vertical-align: inherit;&quot;&gt;да&lt;/font&gt;&lt;/font&gt;" style="text;html=1;align=center;verticalAlign=middle;resizable=0;points=[];autosize=1;strokeColor=none;fillColor=none;fontSize=16;" parent="1" vertex="1">
          <mxGeometry x="482" y="854.5" width="36" height="31" as="geometry" />
        </mxCell>
        <mxCell id="2Xozx0Ubb1pG0hsM84Ng-6" value="" style="endArrow=none;html=1;rounded=0;fontSize=12;startSize=8;endSize=8;curved=1;exitX=1;exitY=0.5;exitDx=0;exitDy=0;" parent="1" source="nIQ2UmzU8JWMRXX0RVoT-10" edge="1">
          <mxGeometry width="50" height="50" relative="1" as="geometry">
            <mxPoint x="438" y="341" as="sourcePoint" />
            <mxPoint x="744" y="356" as="targetPoint" />
            <Array as="points" />
          </mxGeometry>
        </mxCell>
        <mxCell id="2Xozx0Ubb1pG0hsM84Ng-7" value="&lt;font style=&quot;vertical-align: inherit;&quot;&gt;&lt;font style=&quot;vertical-align: inherit;&quot;&gt;&lt;font style=&quot;vertical-align: inherit;&quot;&gt;&lt;font style=&quot;vertical-align: inherit;&quot;&gt;&lt;font style=&quot;vertical-align: inherit;&quot;&gt;&lt;font style=&quot;vertical-align: inherit;&quot;&gt;&lt;font style=&quot;vertical-align: inherit;&quot;&gt;&lt;font style=&quot;vertical-align: inherit;&quot;&gt;&amp;nbsp;Инвестиции прибыльны. Годовая доходность: {annual_return:.2f}&lt;/font&gt;&lt;/font&gt;&lt;/font&gt;&lt;/font&gt;&lt;/font&gt;&lt;/font&gt;&lt;/font&gt;&lt;/font&gt;" style="rounded=0;whiteSpace=wrap;html=1;" parent="1" vertex="1">
          <mxGeometry x="365" y="1577" width="120" height="64" as="geometry" />
        </mxCell>
        <mxCell id="nIQ2UmzU8JWMRXX0RVoT-33" value="&lt;font style=&quot;vertical-align: inherit;&quot;&gt;&lt;font style=&quot;vertical-align: inherit;&quot;&gt;конечная_сумма &amp;gt; начальная_сумма:&lt;/font&gt;&lt;/font&gt;&lt;div&gt;&lt;font style=&quot;vertical-align: inherit;&quot;&gt;&lt;font style=&quot;vertical-align: inherit;&quot;&gt;&amp;nbsp; &amp;nbsp; &amp;nbsp; &amp;nbsp; прибыль = конечная_сумма - начальная_сумма&lt;/font&gt;&lt;/font&gt;&lt;/div&gt;&lt;div&gt;&lt;font style=&quot;vertical-align: inherit;&quot;&gt;&lt;font style=&quot;vertical-align: inherit;&quot;&gt;&amp;nbsp; &amp;nbsp; &amp;nbsp; &amp;nbsp; годовой_доход = (прибыль / начальная_сумма) * 100 / инвестиционный_период_лет&lt;/font&gt;&lt;/font&gt;&lt;/div&gt;" style="rhombus;whiteSpace=wrap;html=1;" parent="1" vertex="1">
          <mxGeometry x="572" y="838" width="339" height="284" as="geometry" />
        </mxCell>
        <mxCell id="2Xozx0Ubb1pG0hsM84Ng-12" value="" style="endArrow=none;html=1;rounded=0;fontSize=12;startSize=8;endSize=8;curved=1;exitX=1;exitY=0.5;exitDx=0;exitDy=0;" parent="1" source="nIQ2UmzU8JWMRXX0RVoT-33" edge="1">
          <mxGeometry width="50" height="50" relative="1" as="geometry">
            <mxPoint x="909" y="981" as="sourcePoint" />
            <mxPoint x="1078" y="981" as="targetPoint" />
          </mxGeometry>
        </mxCell>
        <mxCell id="2Xozx0Ubb1pG0hsM84Ng-13" value="&lt;font style=&quot;vertical-align: inherit;&quot;&gt;&lt;font style=&quot;vertical-align: inherit;&quot;&gt;нет&lt;/font&gt;&lt;/font&gt;" style="text;html=1;align=center;verticalAlign=middle;resizable=0;points=[];autosize=1;strokeColor=none;fillColor=none;fontSize=16;" parent="1" vertex="1">
          <mxGeometry x="973" y="930" width="43" height="31" as="geometry" />
        </mxCell>
        <mxCell id="2Xozx0Ubb1pG0hsM84Ng-16" value="&lt;font style=&quot;vertical-align: inherit;&quot;&gt;&lt;font style=&quot;vertical-align: inherit;&quot;&gt;еlif&lt;/font&gt;&lt;/font&gt;" style="text;html=1;align=center;verticalAlign=middle;resizable=0;points=[];autosize=1;strokeColor=none;fillColor=none;fontSize=16;" parent="1" vertex="1">
          <mxGeometry x="1110" y="1233.5" width="40" height="31" as="geometry" />
        </mxCell>
        <mxCell id="2Xozx0Ubb1pG0hsM84Ng-18" value="&lt;font style=&quot;vertical-align: inherit;&quot;&gt;&lt;font style=&quot;vertical-align: inherit;&quot;&gt;&lt;font style=&quot;vertical-align: inherit;&quot;&gt;&lt;font style=&quot;vertical-align: inherit;&quot;&gt;&lt;font style=&quot;vertical-align: inherit;&quot;&gt;&lt;font style=&quot;vertical-align: inherit;&quot;&gt;&amp;nbsp;«Инвестиции не принесли ни прибыли, ни убытков».&lt;/font&gt;&lt;/font&gt;&lt;/font&gt;&lt;/font&gt;&lt;/font&gt;&lt;/font&gt;&lt;div&gt;&lt;br&gt;&lt;/div&gt;" style="rounded=0;whiteSpace=wrap;html=1;" parent="1" vertex="1">
          <mxGeometry x="791" y="1504" width="162" height="60" as="geometry" />
        </mxCell>
        <mxCell id="2Xozx0Ubb1pG0hsM84Ng-21" value="&lt;font style=&quot;vertical-align: inherit;&quot;&gt;&lt;font style=&quot;vertical-align: inherit;&quot;&gt;&lt;font style=&quot;vertical-align: inherit;&quot;&gt;&lt;font style=&quot;vertical-align: inherit;&quot;&gt;&amp;nbsp;final_amount == initial_amount:&lt;/font&gt;&lt;/font&gt;&lt;/font&gt;&lt;/font&gt;" style="rhombus;whiteSpace=wrap;html=1;" parent="1" vertex="1">
          <mxGeometry x="983" y="1332" width="178" height="80" as="geometry" />
        </mxCell>
        <mxCell id="2Xozx0Ubb1pG0hsM84Ng-22" value="" style="endArrow=classic;html=1;rounded=0;fontSize=12;startSize=8;endSize=8;curved=1;" parent="1" edge="1">
          <mxGeometry width="50" height="50" relative="1" as="geometry">
            <mxPoint x="1070" y="978" as="sourcePoint" />
            <mxPoint x="1070" y="1332" as="targetPoint" />
          </mxGeometry>
        </mxCell>
        <mxCell id="2Xozx0Ubb1pG0hsM84Ng-26" value="" style="endArrow=none;html=1;rounded=0;fontSize=12;startSize=8;endSize=8;curved=1;entryX=0;entryY=0.5;entryDx=0;entryDy=0;" parent="1" source="2Xozx0Ubb1pG0hsM84Ng-28" target="2Xozx0Ubb1pG0hsM84Ng-21" edge="1">
          <mxGeometry width="50" height="50" relative="1" as="geometry">
            <mxPoint x="876" y="1372" as="sourcePoint" />
            <mxPoint x="918" y="1293" as="targetPoint" />
          </mxGeometry>
        </mxCell>
        <mxCell id="2Xozx0Ubb1pG0hsM84Ng-27" value="" style="endArrow=classic;html=1;rounded=0;fontSize=12;startSize=8;endSize=8;curved=1;" parent="1" edge="1">
          <mxGeometry width="50" height="50" relative="1" as="geometry">
            <mxPoint x="877" y="1371" as="sourcePoint" />
            <mxPoint x="880" y="1503" as="targetPoint" />
          </mxGeometry>
        </mxCell>
        <mxCell id="2Xozx0Ubb1pG0hsM84Ng-33" value="" style="endArrow=none;html=1;rounded=0;fontSize=12;startSize=8;endSize=8;curved=1;exitX=1;exitY=0.5;exitDx=0;exitDy=0;" parent="1" source="2Xozx0Ubb1pG0hsM84Ng-35" edge="1">
          <mxGeometry width="50" height="50" relative="1" as="geometry">
            <mxPoint x="1095" y="1611" as="sourcePoint" />
            <mxPoint x="1297.5384615384614" y="1372" as="targetPoint" />
          </mxGeometry>
        </mxCell>
        <mxCell id="2Xozx0Ubb1pG0hsM84Ng-34" value="" style="endArrow=classic;html=1;rounded=0;fontSize=12;startSize=8;endSize=8;curved=1;" parent="1" edge="1">
          <mxGeometry width="50" height="50" relative="1" as="geometry">
            <mxPoint x="1296" y="1371" as="sourcePoint" />
            <mxPoint x="1299" y="1560" as="targetPoint" />
          </mxGeometry>
        </mxCell>
        <mxCell id="2Xozx0Ubb1pG0hsM84Ng-36" value="" style="endArrow=none;html=1;rounded=0;fontSize=12;startSize=8;endSize=8;curved=1;entryX=0;entryY=0.5;entryDx=0;entryDy=0;" parent="1" target="2Xozx0Ubb1pG0hsM84Ng-28" edge="1">
          <mxGeometry width="50" height="50" relative="1" as="geometry">
            <mxPoint x="876" y="1372" as="sourcePoint" />
            <mxPoint x="983" y="1372" as="targetPoint" />
          </mxGeometry>
        </mxCell>
        <mxCell id="2Xozx0Ubb1pG0hsM84Ng-28" value="&lt;font style=&quot;vertical-align: inherit;&quot;&gt;&lt;font style=&quot;vertical-align: inherit;&quot;&gt;да&lt;/font&gt;&lt;/font&gt;" style="text;html=1;align=center;verticalAlign=middle;resizable=0;points=[];autosize=1;strokeColor=none;fillColor=none;fontSize=16;" parent="1" vertex="1">
          <mxGeometry x="911" y="1356.5" width="36" height="31" as="geometry" />
        </mxCell>
        <mxCell id="2Xozx0Ubb1pG0hsM84Ng-37" value="" style="endArrow=none;html=1;rounded=0;fontSize=12;startSize=8;endSize=8;curved=1;exitX=1;exitY=0.5;exitDx=0;exitDy=0;" parent="1" source="2Xozx0Ubb1pG0hsM84Ng-21" target="2Xozx0Ubb1pG0hsM84Ng-35" edge="1">
          <mxGeometry width="50" height="50" relative="1" as="geometry">
            <mxPoint x="1161" y="1372" as="sourcePoint" />
            <mxPoint x="1297.5384615384614" y="1372" as="targetPoint" />
          </mxGeometry>
        </mxCell>
        <mxCell id="2Xozx0Ubb1pG0hsM84Ng-35" value="&lt;font style=&quot;vertical-align: inherit;&quot;&gt;&lt;font style=&quot;vertical-align: inherit;&quot;&gt;нет&lt;/font&gt;&lt;/font&gt;" style="text;html=1;align=center;verticalAlign=middle;resizable=0;points=[];autosize=1;strokeColor=none;fillColor=none;fontSize=16;" parent="1" vertex="1">
          <mxGeometry x="1195" y="1356.5" width="43" height="31" as="geometry" />
        </mxCell>
        <mxCell id="2Xozx0Ubb1pG0hsM84Ng-41" style="edgeStyle=none;curved=1;rounded=0;orthogonalLoop=1;jettySize=auto;html=1;fontSize=12;startSize=8;endSize=8;" parent="1" source="2Xozx0Ubb1pG0hsM84Ng-38" edge="1">
          <mxGeometry relative="1" as="geometry">
            <mxPoint x="1304" y="1824" as="targetPoint" />
          </mxGeometry>
        </mxCell>
        <mxCell id="2Xozx0Ubb1pG0hsM84Ng-38" value="&lt;font style=&quot;vertical-align: inherit;&quot;&gt;&lt;font style=&quot;vertical-align: inherit;&quot;&gt;&lt;font style=&quot;vertical-align: inherit;&quot;&gt;&lt;font style=&quot;vertical-align: inherit;&quot;&gt;&lt;font style=&quot;vertical-align: inherit;&quot;&gt;&lt;font style=&quot;vertical-align: inherit;&quot;&gt;убыток = начальная_сумма - конечная_сумма&lt;/font&gt;&lt;/font&gt;&lt;/font&gt;&lt;/font&gt;&lt;/font&gt;&lt;/font&gt;&lt;div&gt;&lt;font style=&quot;vertical-align: inherit;&quot;&gt;&lt;font style=&quot;vertical-align: inherit;&quot;&gt;&lt;font style=&quot;vertical-align: inherit;&quot;&gt;&lt;font style=&quot;vertical-align: inherit;&quot;&gt;&lt;font style=&quot;vertical-align: inherit;&quot;&gt;&lt;font style=&quot;vertical-align: inherit;&quot;&gt;&amp;nbsp; &amp;nbsp; &amp;nbsp; &amp;nbsp; годовой_убыток = (убыток / начальный_&lt;/font&gt;&lt;/font&gt;&lt;/font&gt;&lt;/font&gt;&lt;/font&gt;&lt;/font&gt;&lt;/div&gt;" style="rounded=0;whiteSpace=wrap;html=1;" parent="1" vertex="1">
          <mxGeometry x="1208" y="1560" width="191" height="79" as="geometry" />
        </mxCell>
        <mxCell id="2Xozx0Ubb1pG0hsM84Ng-40" value="&lt;font style=&quot;vertical-align: inherit;&quot;&gt;&lt;font style=&quot;vertical-align: inherit;&quot;&gt;&lt;font style=&quot;vertical-align: inherit;&quot;&gt;&lt;font style=&quot;vertical-align: inherit;&quot;&gt;елсе&lt;/font&gt;&lt;/font&gt;&lt;/font&gt;&lt;/font&gt;" style="text;html=1;align=center;verticalAlign=middle;whiteSpace=wrap;rounded=0;" parent="1" vertex="1">
          <mxGeometry x="1222" y="1480" width="30" height="70" as="geometry" />
        </mxCell>
        <mxCell id="2Xozx0Ubb1pG0hsM84Ng-42" value="&lt;font style=&quot;vertical-align: inherit;&quot;&gt;&lt;font style=&quot;vertical-align: inherit;&quot;&gt;Инвестиции убыточны. Годовой убыток: {annual_loss:.2f}%&quot;&lt;/font&gt;&lt;/font&gt;" style="rounded=0;whiteSpace=wrap;html=1;" parent="1" vertex="1">
          <mxGeometry x="1216" y="1826" width="216" height="77" as="geometry" />
        </mxCell>
        <mxCell id="2Xozx0Ubb1pG0hsM84Ng-43" value="&lt;font style=&quot;vertical-align: inherit;&quot;&gt;&lt;font style=&quot;vertical-align: inherit;&quot;&gt;гeturn&lt;/font&gt;&lt;/font&gt;" style="text;html=1;align=center;verticalAlign=middle;whiteSpace=wrap;rounded=0;" parent="1" vertex="1">
          <mxGeometry x="1218" y="1754" width="115" height="32" as="geometry" />
        </mxCell>
        <mxCell id="2Xozx0Ubb1pG0hsM84Ng-44" value="&lt;font style=&quot;vertical-align: inherit;&quot;&gt;&lt;font style=&quot;vertical-align: inherit;&quot;&gt;гeturn&lt;/font&gt;&lt;/font&gt;" style="text;html=1;align=center;verticalAlign=middle;resizable=0;points=[];autosize=1;strokeColor=none;fillColor=none;fontSize=16;" parent="1" vertex="1">
          <mxGeometry x="800" y="1412.5" width="62" height="31" as="geometry" />
        </mxCell>
        <mxCell id="2Xozx0Ubb1pG0hsM84Ng-45" value="&lt;font style=&quot;vertical-align: inherit;&quot;&gt;&lt;font style=&quot;vertical-align: inherit;&quot;&gt;гeturn&lt;/font&gt;&lt;/font&gt;" style="text;html=1;align=center;verticalAlign=middle;resizable=0;points=[];autosize=1;strokeColor=none;fillColor=none;fontSize=16;" parent="1" vertex="1">
          <mxGeometry x="342" y="1284.5" width="62" height="31" as="geometry" />
        </mxCell>
      </root>
    </mxGraphModel>
  </diagram>
  <diagram id="T66azSzykvTcG4P9OsJe" name="Страница — 6">
    <mxGraphModel dx="1593" dy="4047" grid="0" gridSize="10" guides="1" tooltips="1" connect="1" arrows="1" fold="1" page="0" pageScale="1" pageWidth="827" pageHeight="1169" math="0" shadow="0">
      <root>
        <mxCell id="0" />
        <mxCell id="1" parent="0" />
        <mxCell id="uqyoDp0XZkvFojL8hFHW-13" style="edgeStyle=none;curved=1;rounded=0;orthogonalLoop=1;jettySize=auto;html=1;entryX=0.5;entryY=0;entryDx=0;entryDy=0;fontSize=12;startSize=8;endSize=8;" edge="1" parent="1" source="uqyoDp0XZkvFojL8hFHW-1" target="uqyoDp0XZkvFojL8hFHW-3">
          <mxGeometry relative="1" as="geometry" />
        </mxCell>
        <mxCell id="uqyoDp0XZkvFojL8hFHW-1" value="&lt;font style=&quot;vertical-align: inherit;&quot;&gt;&lt;font style=&quot;vertical-align: inherit;&quot;&gt;начало&lt;/font&gt;&lt;/font&gt;" style="ellipse;whiteSpace=wrap;html=1;" vertex="1" parent="1">
          <mxGeometry x="140" y="160" width="120" height="80" as="geometry" />
        </mxCell>
        <mxCell id="uqyoDp0XZkvFojL8hFHW-4" style="edgeStyle=none;curved=1;rounded=0;orthogonalLoop=1;jettySize=auto;html=1;fontSize=12;startSize=8;endSize=8;" edge="1" parent="1" source="uqyoDp0XZkvFojL8hFHW-3">
          <mxGeometry relative="1" as="geometry">
            <mxPoint x="194.5" y="447.72125244140625" as="targetPoint" />
          </mxGeometry>
        </mxCell>
        <mxCell id="uqyoDp0XZkvFojL8hFHW-3" value="&lt;font style=&quot;vertical-align: inherit;&quot;&gt;&lt;font style=&quot;vertical-align: inherit;&quot;&gt;x = float(input(&quot;Введите сумму вклада: &quot;))&lt;/font&gt;&lt;/font&gt;&lt;div&gt;&lt;font style=&quot;vertical-align: inherit;&quot;&gt;&lt;font style=&quot;vertical-align: inherit;&quot;&gt;y = int(input(&quot;Введите количество месяцев: &quot;))&lt;/font&gt;&lt;/font&gt;&lt;/div&gt;&lt;div&gt;&lt;font style=&quot;vertical-align: inherit;&quot;&gt;&lt;font style=&quot;vertical-align: inherit;&quot;&gt;я = 0&lt;/font&gt;&lt;/font&gt;&lt;/div&gt;" style="shape=parallelogram;perimeter=parallelogramPerimeter;whiteSpace=wrap;html=1;fixedSize=1;" vertex="1" parent="1">
          <mxGeometry x="57" y="315" width="277" height="70" as="geometry" />
        </mxCell>
        <mxCell id="uqyoDp0XZkvFojL8hFHW-5" value="&lt;font style=&quot;vertical-align: inherit;&quot;&gt;&lt;font style=&quot;vertical-align: inherit;&quot;&gt;(я &amp;lt; у):&lt;/font&gt;&lt;/font&gt;&lt;div&gt;&lt;font style=&quot;vertical-align: inherit;&quot;&gt;&lt;font style=&quot;vertical-align: inherit;&quot;&gt;&amp;nbsp; &amp;nbsp; я += 1&lt;/font&gt;&lt;/font&gt;&lt;/div&gt;&lt;div&gt;&lt;font style=&quot;vertical-align: inherit;&quot;&gt;&lt;font style=&quot;vertical-align: inherit;&quot;&gt;&amp;nbsp; &amp;nbsp; х += х * 0,07&lt;/font&gt;&lt;/font&gt;&lt;/div&gt;" style="rhombus;whiteSpace=wrap;html=1;" vertex="1" parent="1">
          <mxGeometry x="128" y="449" width="135" height="105" as="geometry" />
        </mxCell>
        <mxCell id="uqyoDp0XZkvFojL8hFHW-6" value="" style="endArrow=none;html=1;rounded=0;fontSize=12;startSize=8;endSize=8;curved=1;entryX=0;entryY=0.5;entryDx=0;entryDy=0;" edge="1" parent="1" target="uqyoDp0XZkvFojL8hFHW-5">
          <mxGeometry width="50" height="50" relative="1" as="geometry">
            <mxPoint x="22" y="501.33" as="sourcePoint" />
            <mxPoint x="95" y="500.83" as="targetPoint" />
          </mxGeometry>
        </mxCell>
        <mxCell id="uqyoDp0XZkvFojL8hFHW-7" value="" style="endArrow=none;html=1;rounded=0;fontSize=12;startSize=8;endSize=8;curved=1;" edge="1" parent="1">
          <mxGeometry width="50" height="50" relative="1" as="geometry">
            <mxPoint x="263" y="502" as="sourcePoint" />
            <mxPoint x="382" y="502" as="targetPoint" />
          </mxGeometry>
        </mxCell>
        <mxCell id="uqyoDp0XZkvFojL8hFHW-8" value="" style="endArrow=classic;html=1;rounded=0;fontSize=12;startSize=8;endSize=8;curved=1;" edge="1" parent="1">
          <mxGeometry width="50" height="50" relative="1" as="geometry">
            <mxPoint x="23" y="499" as="sourcePoint" />
            <mxPoint x="23" y="707" as="targetPoint" />
          </mxGeometry>
        </mxCell>
        <mxCell id="uqyoDp0XZkvFojL8hFHW-10" value="&lt;font style=&quot;vertical-align: inherit;&quot;&gt;&lt;font style=&quot;vertical-align: inherit;&quot;&gt;&lt;font style=&quot;vertical-align: inherit;&quot;&gt;&lt;font style=&quot;vertical-align: inherit;&quot;&gt;да&lt;/font&gt;&lt;/font&gt;&lt;/font&gt;&lt;/font&gt;" style="text;html=1;align=center;verticalAlign=middle;resizable=0;points=[];autosize=1;strokeColor=none;fillColor=none;fontSize=16;" vertex="1" parent="1">
          <mxGeometry x="49" y="458" width="36" height="31" as="geometry" />
        </mxCell>
        <mxCell id="uqyoDp0XZkvFojL8hFHW-11" value="&lt;font style=&quot;vertical-align: inherit;&quot;&gt;&lt;font style=&quot;vertical-align: inherit;&quot;&gt;while&lt;/font&gt;&lt;/font&gt;" style="text;html=1;align=center;verticalAlign=middle;resizable=0;points=[];autosize=1;strokeColor=none;fillColor=none;fontSize=16;" vertex="1" parent="1">
          <mxGeometry x="199" y="391.5" width="55" height="31" as="geometry" />
        </mxCell>
        <mxCell id="uqyoDp0XZkvFojL8hFHW-15" value="&lt;font style=&quot;vertical-align: inherit;&quot;&gt;&lt;font style=&quot;vertical-align: inherit;&quot;&gt;вывод x, 2&lt;/font&gt;&lt;/font&gt;" style="shape=parallelogram;perimeter=parallelogramPerimeter;whiteSpace=wrap;html=1;fixedSize=1;size=3.657287597656314;" vertex="1" parent="1">
          <mxGeometry x="-15" y="706" width="88" height="54" as="geometry" />
        </mxCell>
        <mxCell id="uqyoDp0XZkvFojL8hFHW-16" value="" style="endArrow=none;html=1;rounded=0;fontSize=12;startSize=8;endSize=8;curved=1;entryX=0.5;entryY=1;entryDx=0;entryDy=0;" edge="1" parent="1" target="uqyoDp0XZkvFojL8hFHW-15">
          <mxGeometry width="50" height="50" relative="1" as="geometry">
            <mxPoint x="29" y="922" as="sourcePoint" />
            <mxPoint x="23" y="762" as="targetPoint" />
          </mxGeometry>
        </mxCell>
        <mxCell id="uqyoDp0XZkvFojL8hFHW-18" value="" style="endArrow=none;html=1;rounded=0;fontSize=12;startSize=8;endSize=8;curved=1;" edge="1" parent="1">
          <mxGeometry width="50" height="50" relative="1" as="geometry">
            <mxPoint x="29" y="919" as="sourcePoint" />
            <mxPoint x="185" y="919" as="targetPoint" />
          </mxGeometry>
        </mxCell>
        <mxCell id="uqyoDp0XZkvFojL8hFHW-19" value="" style="endArrow=classic;html=1;rounded=0;fontSize=12;startSize=8;endSize=8;curved=1;entryX=0.5;entryY=1;entryDx=0;entryDy=0;" edge="1" parent="1" target="uqyoDp0XZkvFojL8hFHW-5">
          <mxGeometry width="50" height="50" relative="1" as="geometry">
            <mxPoint x="185" y="922" as="sourcePoint" />
            <mxPoint x="194" y="561" as="targetPoint" />
          </mxGeometry>
        </mxCell>
        <mxCell id="uqyoDp0XZkvFojL8hFHW-20" value="&lt;font style=&quot;vertical-align: inherit;&quot;&gt;&lt;font style=&quot;vertical-align: inherit;&quot;&gt;нет&lt;/font&gt;&lt;/font&gt;" style="text;html=1;align=center;verticalAlign=middle;resizable=0;points=[];autosize=1;strokeColor=none;fillColor=none;fontSize=16;" vertex="1" parent="1">
          <mxGeometry x="298" y="458" width="43" height="31" as="geometry" />
        </mxCell>
        <mxCell id="uqyoDp0XZkvFojL8hFHW-21" value="" style="endArrow=none;html=1;rounded=0;fontSize=12;startSize=8;endSize=8;curved=1;" edge="1" parent="1">
          <mxGeometry width="50" height="50" relative="1" as="geometry">
            <mxPoint x="377" y="689" as="sourcePoint" />
            <mxPoint x="381" y="503" as="targetPoint" />
          </mxGeometry>
        </mxCell>
        <mxCell id="uqyoDp0XZkvFojL8hFHW-23" value="" style="endArrow=none;html=1;rounded=0;fontSize=12;startSize=8;endSize=8;curved=1;" edge="1" parent="1">
          <mxGeometry width="50" height="50" relative="1" as="geometry">
            <mxPoint x="378" y="690" as="sourcePoint" />
            <mxPoint x="527" y="690" as="targetPoint" />
          </mxGeometry>
        </mxCell>
        <mxCell id="uqyoDp0XZkvFojL8hFHW-24" value="" style="endArrow=classic;html=1;rounded=0;fontSize=12;startSize=8;endSize=8;curved=1;" edge="1" parent="1">
          <mxGeometry width="50" height="50" relative="1" as="geometry">
            <mxPoint x="527" y="689" as="sourcePoint" />
            <mxPoint x="524" y="778" as="targetPoint" />
          </mxGeometry>
        </mxCell>
      </root>
    </mxGraphModel>
  </diagram>
  <diagram id="ieEbXFDnggYb4QUKDksW" name="Страница — 7">
    <mxGraphModel dx="594" dy="759" grid="0" gridSize="10" guides="1" tooltips="1" connect="1" arrows="1" fold="1" page="0" pageScale="1" pageWidth="827" pageHeight="1169" math="0" shadow="0">
      <root>
        <mxCell id="0" />
        <mxCell id="1" parent="0" />
        <mxCell id="lJjLdvuJ6J9g9OragEvk-20" style="edgeStyle=none;curved=1;rounded=0;orthogonalLoop=1;jettySize=auto;html=1;entryX=0.5;entryY=0;entryDx=0;entryDy=0;fontSize=12;startSize=8;endSize=8;" edge="1" parent="1" source="VKOIYls4Pxwz9Icb7uB1-1" target="VKOIYls4Pxwz9Icb7uB1-3">
          <mxGeometry relative="1" as="geometry" />
        </mxCell>
        <mxCell id="VKOIYls4Pxwz9Icb7uB1-1" value="&lt;font style=&quot;vertical-align: inherit;&quot;&gt;&lt;font style=&quot;vertical-align: inherit;&quot;&gt;&lt;font style=&quot;vertical-align: inherit;&quot;&gt;&lt;font style=&quot;vertical-align: inherit;&quot;&gt;начало&lt;/font&gt;&lt;/font&gt;&lt;/font&gt;&lt;/font&gt;" style="ellipse;whiteSpace=wrap;html=1;" vertex="1" parent="1">
          <mxGeometry x="137" y="69" width="136" height="42" as="geometry" />
        </mxCell>
        <mxCell id="lJjLdvuJ6J9g9OragEvk-21" style="edgeStyle=none;curved=1;rounded=0;orthogonalLoop=1;jettySize=auto;html=1;entryX=0.5;entryY=0;entryDx=0;entryDy=0;fontSize=12;startSize=8;endSize=8;" edge="1" parent="1" source="VKOIYls4Pxwz9Icb7uB1-3" target="VKOIYls4Pxwz9Icb7uB1-5">
          <mxGeometry relative="1" as="geometry" />
        </mxCell>
        <mxCell id="VKOIYls4Pxwz9Icb7uB1-3" value="&lt;font style=&quot;vertical-align: inherit;&quot;&gt;&lt;font style=&quot;vertical-align: inherit;&quot;&gt;x = float(input(&quot;Введите сумму вклада: &quot;))&lt;/font&gt;&lt;/font&gt;&lt;div&gt;&lt;font style=&quot;vertical-align: inherit;&quot;&gt;&lt;font style=&quot;vertical-align: inherit;&quot;&gt;y = int(input(&quot;Введите количество месяцев: &quot;))&lt;/font&gt;&lt;/font&gt;&lt;/div&gt;&lt;div&gt;&lt;font style=&quot;vertical-align: inherit;&quot;&gt;&lt;font style=&quot;vertical-align: inherit;&quot;&gt;я = 0&lt;/font&gt;&lt;/font&gt;&lt;/div&gt;" style="shape=parallelogram;perimeter=parallelogramPerimeter;whiteSpace=wrap;html=1;fixedSize=1;" vertex="1" parent="1">
          <mxGeometry x="98" y="275" width="211" height="77" as="geometry" />
        </mxCell>
        <mxCell id="VKOIYls4Pxwz9Icb7uB1-5" value="&lt;font style=&quot;vertical-align: inherit;&quot;&gt;&lt;font style=&quot;vertical-align: inherit;&quot;&gt;(я &amp;lt; у):&lt;/font&gt;&lt;/font&gt;&lt;div&gt;&lt;font style=&quot;vertical-align: inherit;&quot;&gt;&lt;font style=&quot;vertical-align: inherit;&quot;&gt;&amp;nbsp; &amp;nbsp; я += 1&lt;/font&gt;&lt;/font&gt;&lt;/div&gt;&lt;div&gt;&lt;font style=&quot;vertical-align: inherit;&quot;&gt;&lt;font style=&quot;vertical-align: inherit;&quot;&gt;&amp;nbsp; &amp;nbsp; х += х * 0,07&lt;/font&gt;&lt;/font&gt;&lt;/div&gt;" style="rhombus;whiteSpace=wrap;html=1;" vertex="1" parent="1">
          <mxGeometry x="140" y="441" width="119" height="81" as="geometry" />
        </mxCell>
        <mxCell id="VKOIYls4Pxwz9Icb7uB1-7" value="" style="endArrow=none;html=1;rounded=0;fontSize=12;startSize=8;endSize=8;curved=1;exitX=1;exitY=0.5;exitDx=0;exitDy=0;" edge="1" parent="1" source="VKOIYls4Pxwz9Icb7uB1-5">
          <mxGeometry width="50" height="50" relative="1" as="geometry">
            <mxPoint x="168" y="523" as="sourcePoint" />
            <mxPoint x="343" y="477" as="targetPoint" />
          </mxGeometry>
        </mxCell>
        <mxCell id="VKOIYls4Pxwz9Icb7uB1-8" value="" style="endArrow=none;html=1;rounded=0;fontSize=12;startSize=8;endSize=8;curved=1;entryX=0;entryY=0.5;entryDx=0;entryDy=0;" edge="1" parent="1" source="lJjLdvuJ6J9g9OragEvk-8" target="VKOIYls4Pxwz9Icb7uB1-5">
          <mxGeometry width="50" height="50" relative="1" as="geometry">
            <mxPoint x="40" y="475" as="sourcePoint" />
            <mxPoint x="127" y="475" as="targetPoint" />
          </mxGeometry>
        </mxCell>
        <mxCell id="GmdSOX7sL6_ln4OTJJ5t-1" value="" style="endArrow=classic;html=1;rounded=0;fontSize=12;startSize=8;endSize=8;curved=1;" edge="1" parent="1">
          <mxGeometry width="50" height="50" relative="1" as="geometry">
            <mxPoint x="42" y="476" as="sourcePoint" />
            <mxPoint x="36" y="742" as="targetPoint" />
          </mxGeometry>
        </mxCell>
        <mxCell id="q_ffhV-05bwzQA_8Vium-2" value="" style="endArrow=none;html=1;rounded=0;fontSize=12;startSize=8;endSize=8;curved=1;" edge="1" parent="1">
          <mxGeometry width="50" height="50" relative="1" as="geometry">
            <mxPoint x="341" y="601" as="sourcePoint" />
            <mxPoint x="422" y="600" as="targetPoint" />
          </mxGeometry>
        </mxCell>
        <mxCell id="q_ffhV-05bwzQA_8Vium-5" value="" style="endArrow=none;html=1;rounded=0;fontSize=12;startSize=8;endSize=8;curved=1;" edge="1" parent="1" source="lJjLdvuJ6J9g9OragEvk-9">
          <mxGeometry width="50" height="50" relative="1" as="geometry">
            <mxPoint x="340" y="602" as="sourcePoint" />
            <mxPoint x="342" y="474" as="targetPoint" />
          </mxGeometry>
        </mxCell>
        <mxCell id="q_ffhV-05bwzQA_8Vium-6" value="" style="endArrow=classic;html=1;rounded=0;fontSize=12;startSize=8;endSize=8;curved=1;" edge="1" parent="1">
          <mxGeometry width="50" height="50" relative="1" as="geometry">
            <mxPoint x="423" y="600" as="sourcePoint" />
            <mxPoint x="423" y="707" as="targetPoint" />
          </mxGeometry>
        </mxCell>
        <mxCell id="lJjLdvuJ6J9g9OragEvk-1" value="&lt;font style=&quot;vertical-align: inherit;&quot;&gt;&lt;font style=&quot;vertical-align: inherit;&quot;&gt;вывод x, 2&lt;/font&gt;&lt;/font&gt;" style="shape=parallelogram;perimeter=parallelogramPerimeter;whiteSpace=wrap;html=1;fixedSize=1;" vertex="1" parent="1">
          <mxGeometry x="-30" y="741" width="120" height="60" as="geometry" />
        </mxCell>
        <mxCell id="lJjLdvuJ6J9g9OragEvk-2" value="" style="endArrow=none;html=1;rounded=0;fontSize=12;startSize=8;endSize=8;curved=1;" edge="1" parent="1">
          <mxGeometry width="50" height="50" relative="1" as="geometry">
            <mxPoint x="30" y="874" as="sourcePoint" />
            <mxPoint x="31" y="800" as="targetPoint" />
          </mxGeometry>
        </mxCell>
        <mxCell id="lJjLdvuJ6J9g9OragEvk-3" value="" style="endArrow=none;html=1;rounded=0;fontSize=12;startSize=8;endSize=8;curved=1;" edge="1" parent="1">
          <mxGeometry width="50" height="50" relative="1" as="geometry">
            <mxPoint x="29" y="873" as="sourcePoint" />
            <mxPoint x="198" y="873" as="targetPoint" />
          </mxGeometry>
        </mxCell>
        <mxCell id="lJjLdvuJ6J9g9OragEvk-6" value="" style="endArrow=classic;html=1;rounded=0;fontSize=12;startSize=8;endSize=8;curved=1;" edge="1" parent="1">
          <mxGeometry width="50" height="50" relative="1" as="geometry">
            <mxPoint x="196" y="873" as="sourcePoint" />
            <mxPoint x="199" y="520" as="targetPoint" />
          </mxGeometry>
        </mxCell>
        <mxCell id="lJjLdvuJ6J9g9OragEvk-10" value="" style="endArrow=none;html=1;rounded=0;fontSize=12;startSize=8;endSize=8;curved=1;entryX=0;entryY=0.5;entryDx=0;entryDy=0;" edge="1" parent="1" target="lJjLdvuJ6J9g9OragEvk-8">
          <mxGeometry width="50" height="50" relative="1" as="geometry">
            <mxPoint x="40" y="475" as="sourcePoint" />
            <mxPoint x="147" y="477" as="targetPoint" />
          </mxGeometry>
        </mxCell>
        <mxCell id="lJjLdvuJ6J9g9OragEvk-8" value="&lt;font style=&quot;vertical-align: inherit;&quot;&gt;&lt;font style=&quot;vertical-align: inherit;&quot;&gt;да&lt;/font&gt;&lt;/font&gt;" style="text;html=1;align=center;verticalAlign=middle;resizable=0;points=[];autosize=1;strokeColor=none;fillColor=none;fontSize=16;" vertex="1" parent="1">
          <mxGeometry x="101" y="461.5" width="36" height="31" as="geometry" />
        </mxCell>
        <mxCell id="lJjLdvuJ6J9g9OragEvk-11" value="" style="endArrow=none;html=1;rounded=0;fontSize=12;startSize=8;endSize=8;curved=1;" edge="1" parent="1" target="lJjLdvuJ6J9g9OragEvk-9">
          <mxGeometry width="50" height="50" relative="1" as="geometry">
            <mxPoint x="340" y="602" as="sourcePoint" />
            <mxPoint x="342" y="474" as="targetPoint" />
          </mxGeometry>
        </mxCell>
        <mxCell id="lJjLdvuJ6J9g9OragEvk-9" value="&lt;font style=&quot;vertical-align: inherit;&quot;&gt;&lt;font style=&quot;vertical-align: inherit;&quot;&gt;&lt;font style=&quot;vertical-align: inherit;&quot;&gt;&lt;font style=&quot;vertical-align: inherit;&quot;&gt;нет&lt;/font&gt;&lt;/font&gt;&lt;/font&gt;&lt;/font&gt;" style="text;html=1;align=center;verticalAlign=middle;resizable=0;points=[];autosize=1;strokeColor=none;fillColor=none;fontSize=16;" vertex="1" parent="1">
          <mxGeometry x="321" y="486" width="43" height="31" as="geometry" />
        </mxCell>
        <mxCell id="lJjLdvuJ6J9g9OragEvk-12" value="&lt;font style=&quot;vertical-align: inherit;&quot;&gt;&lt;font style=&quot;vertical-align: inherit;&quot;&gt;while&lt;/font&gt;&lt;/font&gt;" style="text;html=1;align=center;verticalAlign=middle;resizable=0;points=[];autosize=1;strokeColor=none;fillColor=none;fontSize=16;" vertex="1" parent="1">
          <mxGeometry x="133" y="375" width="55" height="31" as="geometry" />
        </mxCell>
      </root>
    </mxGraphModel>
  </diagram>
  <diagram id="LE_O4iSJJfEL4d_qxnzN" name="Страница — 8">
    <mxGraphModel dx="710" dy="804" grid="0" gridSize="10" guides="1" tooltips="1" connect="1" arrows="1" fold="1" page="0" pageScale="1" pageWidth="827" pageHeight="1169" math="0" shadow="0">
      <root>
        <mxCell id="0" />
        <mxCell id="1" parent="0" />
        <mxCell id="97ROTX2fMtE6SUiSDud0-2" style="edgeStyle=none;curved=1;rounded=0;orthogonalLoop=1;jettySize=auto;html=1;fontSize=12;startSize=8;endSize=8;entryX=0.405;entryY=0.008;entryDx=0;entryDy=0;entryPerimeter=0;" parent="1" source="97ROTX2fMtE6SUiSDud0-1" target="97ROTX2fMtE6SUiSDud0-3" edge="1">
          <mxGeometry relative="1" as="geometry">
            <mxPoint x="120" y="319.6597900390625" as="targetPoint" />
          </mxGeometry>
        </mxCell>
        <mxCell id="97ROTX2fMtE6SUiSDud0-1" value="&lt;font style=&quot;vertical-align: inherit;&quot;&gt;&lt;font style=&quot;vertical-align: inherit;&quot;&gt;начало&lt;/font&gt;&lt;/font&gt;" style="ellipse;whiteSpace=wrap;html=1;" parent="1" vertex="1">
          <mxGeometry x="45" y="48" width="120" height="80" as="geometry" />
        </mxCell>
        <mxCell id="97ROTX2fMtE6SUiSDud0-4" style="edgeStyle=none;curved=1;rounded=0;orthogonalLoop=1;jettySize=auto;html=1;fontSize=12;startSize=8;endSize=8;" parent="1" source="97ROTX2fMtE6SUiSDud0-3" edge="1">
          <mxGeometry relative="1" as="geometry">
            <mxPoint x="120" y="449.19134521484375" as="targetPoint" />
          </mxGeometry>
        </mxCell>
        <mxCell id="97ROTX2fMtE6SUiSDud0-3" value="&lt;br&gt;&lt;div&gt;&lt;font style=&quot;vertical-align: inherit;&quot;&gt;&lt;font style=&quot;vertical-align: inherit;&quot;&gt;&amp;nbsp; &amp;nbsp; месячная_процентная_ставка = годовая_процентная_ставка / 12 / 100&lt;/font&gt;&lt;/font&gt;&lt;/div&gt;&lt;div&gt;&lt;br&gt;&lt;/div&gt;&lt;div&gt;&lt;font style=&quot;vertical-align: inherit;&quot;&gt;&lt;font style=&quot;vertical-align: inherit;&quot;&gt;&amp;nbsp; &amp;nbsp;&lt;/font&gt;&lt;/font&gt;&lt;span style=&quot;background-color: transparent; color: light-dark(rgb(0, 0, 0), rgb(255, 255, 255));&quot;&gt;&lt;font style=&quot;vertical-align: inherit;&quot;&gt;&lt;font style=&quot;vertical-align: inherit;&quot;&gt;срок_кредита_месяцы = срок_кредита_годы * 12&lt;/font&gt;&lt;/font&gt;&lt;/span&gt;&lt;/div&gt;&lt;div&gt;&lt;br&gt;&lt;/div&gt;&lt;div&gt;&amp;nbsp;&lt;/div&gt;" style="shape=parallelogram;perimeter=parallelogramPerimeter;whiteSpace=wrap;html=1;fixedSize=1;" parent="1" vertex="1">
          <mxGeometry x="11" y="214" width="222" height="128" as="geometry" />
        </mxCell>
        <mxCell id="97ROTX2fMtE6SUiSDud0-5" value="&lt;font style=&quot;vertical-align: inherit;&quot;&gt;&lt;font style=&quot;vertical-align: inherit;&quot;&gt;ежемесячная_процентная_ставка == 0:&lt;/font&gt;&lt;/font&gt;&lt;div&gt;&lt;font style=&quot;vertical-align: inherit;&quot;&gt;&lt;font style=&quot;vertical-align: inherit;&quot;&gt;&amp;nbsp; &amp;nbsp; &amp;nbsp; &amp;nbsp; ежемесячный_платеж = основная_сумма / срок_кредита_месяцы&lt;/font&gt;&lt;/font&gt;&lt;/div&gt;" style="rhombus;whiteSpace=wrap;html=1;" parent="1" vertex="1">
          <mxGeometry x="-29" y="447" width="293" height="122" as="geometry" />
        </mxCell>
        <mxCell id="97ROTX2fMtE6SUiSDud0-6" value="" style="endArrow=none;html=1;rounded=0;fontSize=12;startSize=8;endSize=8;curved=1;exitX=1;exitY=0.5;exitDx=0;exitDy=0;" parent="1" source="97ROTX2fMtE6SUiSDud0-5" edge="1">
          <mxGeometry width="50" height="50" relative="1" as="geometry">
            <mxPoint x="291" y="513" as="sourcePoint" />
            <mxPoint x="365" y="508" as="targetPoint" />
          </mxGeometry>
        </mxCell>
        <mxCell id="97ROTX2fMtE6SUiSDud0-8" value="" style="endArrow=none;html=1;rounded=0;fontSize=12;startSize=8;endSize=8;curved=1;entryX=0;entryY=0.5;entryDx=0;entryDy=0;" parent="1" target="97ROTX2fMtE6SUiSDud0-5" edge="1">
          <mxGeometry width="50" height="50" relative="1" as="geometry">
            <mxPoint x="-121" y="508" as="sourcePoint" />
            <mxPoint x="90" y="425" as="targetPoint" />
          </mxGeometry>
        </mxCell>
        <mxCell id="97ROTX2fMtE6SUiSDud0-10" value="" style="endArrow=classic;html=1;rounded=0;fontSize=12;startSize=8;endSize=8;curved=1;" parent="1" edge="1">
          <mxGeometry width="50" height="50" relative="1" as="geometry">
            <mxPoint x="367" y="507" as="sourcePoint" />
            <mxPoint x="365" y="678" as="targetPoint" />
          </mxGeometry>
        </mxCell>
        <mxCell id="wmB04MishcBBQxrk2gNB-1" value="&lt;font style=&quot;vertical-align: inherit;&quot;&gt;&lt;font style=&quot;vertical-align: inherit;&quot;&gt;IF&lt;/font&gt;&lt;/font&gt;" style="text;html=1;align=center;verticalAlign=middle;resizable=0;points=[];autosize=1;strokeColor=none;fillColor=none;fontSize=16;" parent="1" vertex="1">
          <mxGeometry x="55.5" y="404.5" width="32" height="31" as="geometry" />
        </mxCell>
        <mxCell id="zKyvvlYdHADxN53cOJPH-1" value="" style="endArrow=classic;html=1;rounded=0;fontSize=12;startSize=8;endSize=8;curved=1;" parent="1" edge="1">
          <mxGeometry width="50" height="50" relative="1" as="geometry">
            <mxPoint x="-118" y="507" as="sourcePoint" />
            <mxPoint x="-116" y="706" as="targetPoint" />
          </mxGeometry>
        </mxCell>
        <mxCell id="93sE8h1_V9GtHxVFcNfr-1" value="&lt;font style=&quot;vertical-align: inherit;&quot;&gt;&lt;font style=&quot;vertical-align: inherit;&quot;&gt;нет&lt;/font&gt;&lt;/font&gt;" style="text;html=1;align=center;verticalAlign=middle;resizable=0;points=[];autosize=1;strokeColor=none;fillColor=none;fontSize=16;" parent="1" vertex="1">
          <mxGeometry x="-90.5" y="448.5" width="43" height="31" as="geometry" />
        </mxCell>
        <mxCell id="93sE8h1_V9GtHxVFcNfr-2" value="&lt;font style=&quot;vertical-align: inherit;&quot;&gt;&lt;font style=&quot;vertical-align: inherit;&quot;&gt;да&lt;/font&gt;&lt;/font&gt;" style="text;html=1;align=center;verticalAlign=middle;resizable=0;points=[];autosize=1;strokeColor=none;fillColor=none;fontSize=16;" parent="1" vertex="1">
          <mxGeometry x="248.5" y="415.5" width="37" height="31" as="geometry" />
        </mxCell>
        <mxCell id="93sE8h1_V9GtHxVFcNfr-3" value="&lt;font style=&quot;vertical-align: inherit;&quot;&gt;&lt;font style=&quot;vertical-align: inherit;&quot;&gt;ежемесячный_платеж = (основная_сумма * ежемесячная_процентная_ставка) / (1 - (1 + ежемесячная_процентная_ставка) ** -срок_кредита_месяцы)&lt;/font&gt;&lt;/font&gt;&lt;div&gt;&lt;br&gt;&lt;/div&gt;&lt;div&gt;&lt;font style=&quot;vertical-align: inherit;&quot;&gt;&lt;font style=&quot;vertical-align: inherit;&quot;&gt;&amp;nbsp; &amp;nbsp; # Инициализируемая переменная для общей суммы выплат&lt;/font&gt;&lt;/font&gt;&lt;/div&gt;&lt;div&gt;&lt;font style=&quot;vertical-align: inherit;&quot;&gt;&lt;font style=&quot;vertical-align: inherit;&quot;&gt;&amp;nbsp; &amp;nbsp; всего_платежей = 0&lt;/font&gt;&lt;/font&gt;&lt;/div&gt;" style="rounded=0;whiteSpace=wrap;html=1;" parent="1" vertex="1">
          <mxGeometry x="-270" y="705" width="308" height="116" as="geometry" />
        </mxCell>
        <mxCell id="93sE8h1_V9GtHxVFcNfr-4" value="&lt;font style=&quot;vertical-align: inherit;&quot;&gt;&lt;font style=&quot;vertical-align: inherit;&quot;&gt;еlse&lt;/font&gt;&lt;/font&gt;" style="text;html=1;align=center;verticalAlign=middle;resizable=0;points=[];autosize=1;strokeColor=none;fillColor=none;fontSize=16;" parent="1" vertex="1">
          <mxGeometry x="-174.5" y="648.5" width="46" height="31" as="geometry" />
        </mxCell>
        <mxCell id="96ZNOhIRK1n5yHykoxld-3" style="edgeStyle=none;curved=1;rounded=0;orthogonalLoop=1;jettySize=auto;html=1;fontSize=12;startSize=8;endSize=8;" edge="1" parent="1" source="96ZNOhIRK1n5yHykoxld-1">
          <mxGeometry relative="1" as="geometry">
            <mxPoint x="366.9999999999998" y="901.2417515345983" as="targetPoint" />
          </mxGeometry>
        </mxCell>
        <mxCell id="96ZNOhIRK1n5yHykoxld-1" value="&lt;br&gt;&lt;div&gt;&lt;font style=&quot;vertical-align: inherit;&quot;&gt;&lt;font style=&quot;vertical-align: inherit;&quot;&gt;&lt;font style=&quot;vertical-align: inherit;&quot;&gt;&lt;font style=&quot;vertical-align: inherit;&quot;&gt;&amp;nbsp; &amp;nbsp; &amp;nbsp; &amp;nbsp; общий_платежи += ежемесячный_платеж&lt;/font&gt;&lt;/font&gt;&lt;/font&gt;&lt;/font&gt;&lt;/div&gt;&lt;div&gt;&lt;br&gt;&lt;/div&gt;&lt;div&gt;&lt;font style=&quot;vertical-align: inherit;&quot;&gt;&lt;font style=&quot;vertical-align: inherit;&quot;&gt;&amp;nbsp; &amp;nbsp;&amp;nbsp;&lt;/font&gt;&lt;/font&gt;&lt;/div&gt;" style="rhombus;whiteSpace=wrap;html=1;" vertex="1" parent="1">
          <mxGeometry x="248.5" y="679.5" width="237" height="80" as="geometry" />
        </mxCell>
        <mxCell id="96ZNOhIRK1n5yHykoxld-2" value="&lt;font style=&quot;vertical-align: inherit;&quot;&gt;&lt;font style=&quot;vertical-align: inherit;&quot;&gt;&lt;font style=&quot;vertical-align: inherit;&quot;&gt;&lt;font style=&quot;vertical-align: inherit;&quot;&gt;за месяц в отдельных частях (1, кредит_терм_месяцев + 1):&lt;/font&gt;&lt;/font&gt;&lt;/font&gt;&lt;/font&gt;&lt;div&gt;&lt;font style=&quot;vertical-align: inherit;&quot;&gt;&lt;font style=&quot;vertical-align: inherit;&quot;&gt;&amp;nbsp; &amp;nbsp; &amp;nbsp; &amp;nbsp;&amp;nbsp;&lt;/font&gt;&lt;/font&gt;&lt;/div&gt;" style="text;html=1;align=center;verticalAlign=middle;resizable=0;points=[];autosize=1;strokeColor=none;fillColor=none;fontSize=16;" vertex="1" parent="1">
          <mxGeometry x="398" y="587" width="468" height="50" as="geometry" />
        </mxCell>
        <mxCell id="96ZNOhIRK1n5yHykoxld-4" value="&lt;span style=&quot;background-color: transparent; color: light-dark(rgb(0, 0, 0), rgb(255, 255, 255));&quot;&gt;&lt;font style=&quot;vertical-align: inherit;&quot;&gt;&lt;font style=&quot;vertical-align: inherit;&quot;&gt;&amp;nbsp;ежемесячного_платежа, общая_платежа&lt;/font&gt;&lt;/font&gt;&lt;/span&gt;&lt;div&gt;&lt;br&gt;&lt;/div&gt;" style="rounded=0;whiteSpace=wrap;html=1;" vertex="1" parent="1">
          <mxGeometry x="294" y="903" width="155" height="60" as="geometry" />
        </mxCell>
        <mxCell id="96ZNOhIRK1n5yHykoxld-5" value="&lt;font style=&quot;vertical-align: inherit;&quot;&gt;&lt;font style=&quot;vertical-align: inherit;&quot;&gt;гeturn&lt;/font&gt;&lt;/font&gt;" style="text;html=1;align=center;verticalAlign=middle;resizable=0;points=[];autosize=1;strokeColor=none;fillColor=none;fontSize=16;" vertex="1" parent="1">
          <mxGeometry x="388" y="816.5" width="62" height="31" as="geometry" />
        </mxCell>
      </root>
    </mxGraphModel>
  </diagram>
  <diagram id="yaEX-rluwhc0__Rt7qXa" name="Страница — 9">
    <mxGraphModel dx="2800" dy="6470" grid="0" gridSize="10" guides="1" tooltips="1" connect="1" arrows="1" fold="1" page="0" pageScale="1" pageWidth="827" pageHeight="1169" math="0" shadow="0">
      <root>
        <mxCell id="0" />
        <mxCell id="1" parent="0" />
        <mxCell id="KA9Wz9pon_2ReE_rLUgd-2" style="edgeStyle=none;curved=1;rounded=0;orthogonalLoop=1;jettySize=auto;html=1;entryX=0.5;entryY=0;entryDx=0;entryDy=0;fontSize=12;startSize=8;endSize=8;" edge="1" parent="1" source="6N87pIZHJheVytno28ju-1" target="KA9Wz9pon_2ReE_rLUgd-1">
          <mxGeometry relative="1" as="geometry" />
        </mxCell>
        <mxCell id="6N87pIZHJheVytno28ju-1" value="&lt;font style=&quot;vertical-align: inherit;&quot;&gt;&lt;font style=&quot;vertical-align: inherit;&quot;&gt;начало&lt;/font&gt;&lt;/font&gt;" style="ellipse;whiteSpace=wrap;html=1;" parent="1" vertex="1">
          <mxGeometry x="82" y="-97" width="165" height="93" as="geometry" />
        </mxCell>
        <mxCell id="GR9gfGlC2uIBBYj3jPdS-1" value="&lt;font style=&quot;vertical-align: inherit;&quot;&gt;&lt;font style=&quot;vertical-align: inherit;&quot;&gt;&lt;font style=&quot;vertical-align: inherit;&quot;&gt;&lt;font style=&quot;vertical-align: inherit;&quot;&gt;&lt;font style=&quot;vertical-align: inherit;&quot;&gt;&lt;font style=&quot;vertical-align: inherit;&quot;&gt;&amp;nbsp;баланс = баланс&lt;/font&gt;&lt;/font&gt;&lt;/font&gt;&lt;/font&gt;&lt;/font&gt;&lt;/font&gt;&lt;div&gt;&lt;font style=&quot;vertical-align: inherit;&quot;&gt;&lt;font style=&quot;vertical-align: inherit;&quot;&gt;&lt;font style=&quot;vertical-align: inherit;&quot;&gt;&lt;font style=&quot;vertical-align: inherit;&quot;&gt;&lt;font style=&quot;vertical-align: inherit;&quot;&gt;&lt;font style=&quot;vertical-align: inherit;&quot;&gt;&amp;nbsp; &amp;nbsp; проценты = остаток / 100&lt;/font&gt;&lt;/font&gt;&lt;/font&gt;&lt;/font&gt;&lt;/font&gt;&lt;/font&gt;&lt;/div&gt;&lt;div&gt;&lt;font style=&quot;vertical-align: inherit;&quot;&gt;&lt;font style=&quot;vertical-align: inherit;&quot;&gt;&lt;font style=&quot;vertical-align: inherit;&quot;&gt;&lt;font style=&quot;vertical-align: inherit;&quot;&gt;&lt;font style=&quot;vertical-align: inherit;&quot;&gt;&lt;font style=&quot;vertical-align: inherit;&quot;&gt;&amp;nbsp; &amp;nbsp; основной долг = платеж - проценты&lt;/font&gt;&lt;/font&gt;&lt;/font&gt;&lt;/font&gt;&lt;/font&gt;&lt;/font&gt;&lt;/div&gt;&lt;div&gt;&lt;font style=&quot;vertical-align: inherit;&quot;&gt;&lt;font style=&quot;vertical-align: inherit;&quot;&gt;&lt;font style=&quot;vertical-align: inherit;&quot;&gt;&lt;font style=&quot;vertical-align: inherit;&quot;&gt;&lt;font style=&quot;vertical-align: inherit;&quot;&gt;&lt;font style=&quot;vertical-align: inherit;&quot;&gt;&amp;nbsp; &amp;nbsp; endBalance = баланс - платеж + проценты&lt;/font&gt;&lt;/font&gt;&lt;/font&gt;&lt;/font&gt;&lt;/font&gt;&lt;/font&gt;&lt;/div&gt;&lt;div&gt;&lt;font style=&quot;vertical-align: inherit;&quot;&gt;&lt;font style=&quot;vertical-align: inherit;&quot;&gt;&lt;font style=&quot;vertical-align: inherit;&quot;&gt;&lt;font style=&quot;vertical-align: inherit;&quot;&gt;&lt;font style=&quot;vertical-align: inherit;&quot;&gt;&lt;font style=&quot;vertical-align: inherit;&quot;&gt;&amp;nbsp; &amp;nbsp;&amp;nbsp;&lt;/font&gt;&lt;/font&gt;&lt;/font&gt;&lt;/font&gt;&lt;/font&gt;&lt;/font&gt;&lt;/div&gt;" style="rhombus;whiteSpace=wrap;html=1;" parent="1" vertex="1">
          <mxGeometry x="-21" y="517" width="348.75" height="213" as="geometry" />
        </mxCell>
        <mxCell id="KA9Wz9pon_2ReE_rLUgd-3" style="edgeStyle=none;curved=1;rounded=0;orthogonalLoop=1;jettySize=auto;html=1;entryX=0.5;entryY=0;entryDx=0;entryDy=0;fontSize=12;startSize=8;endSize=8;" edge="1" parent="1" source="KA9Wz9pon_2ReE_rLUgd-1" target="GR9gfGlC2uIBBYj3jPdS-1">
          <mxGeometry relative="1" as="geometry" />
        </mxCell>
        <mxCell id="KA9Wz9pon_2ReE_rLUgd-1" value="&lt;pre style=&quot;font-family: var(--colab-code-font-family); margin-top: 10px; margin-right: 8px; margin-bottom: 8px; white-space-collapse: collapse; color: rgb(31, 31, 31); font-size: 13px; -webkit-box-flex: 1; flex: 1 1 0%; min-width: 0px; overflow: auto; text-align: start;&quot; data-lang=&quot;notebook-python&quot; class=&quot;editor flex monaco monaco-colorized colab colab&quot;&gt;&lt;br&gt;&lt;br&gt;&lt;span style=&quot;color: rgb(0, 0, 0);&quot; class=&quot;mtk1&quot;&gt;&lt;font style=&quot;vertical-align: inherit;&quot;&gt;&lt;font style=&quot;vertical-align: inherit;&quot;&gt;downPayment = listedPrice /&amp;nbsp; &lt;/font&gt;&lt;/font&gt;&lt;/span&gt;&lt;span style=&quot;color: rgb(17, 102, 68);&quot; class=&quot;mtk12&quot;&gt;&lt;font style=&quot;vertical-align: inherit;&quot;&gt;&lt;font style=&quot;vertical-align: inherit;&quot;&gt;10 &lt;/font&gt;&lt;/font&gt;&lt;/span&gt;&lt;br&gt;&lt;span style=&quot;color: rgb(0, 0, 0);&quot; class=&quot;mtk1&quot;&gt;&lt;font style=&quot;vertical-align: inherit;&quot;&gt;&lt;font style=&quot;vertical-align: inherit;&quot;&gt;balance = listedPrice - downPayment &lt;/font&gt;&lt;/font&gt;&lt;/span&gt;&lt;br&gt;&lt;span style=&quot;color: rgb(0, 0, 0);&quot; class=&quot;mtk1&quot;&gt;&lt;font style=&quot;vertical-align: inherit;&quot;&gt;&lt;font style=&quot;vertical-align: inherit;&quot;&gt;interestRate =&amp;nbsp; &lt;/font&gt;&lt;/font&gt;&lt;/span&gt;&lt;span style=&quot;color: rgb(17, 102, 68);&quot; class=&quot;mtk12&quot;&gt;&lt;font style=&quot;vertical-align: inherit;&quot;&gt;&lt;font style=&quot;vertical-align: inherit;&quot;&gt;.12 &lt;/font&gt;&lt;/font&gt;&lt;/span&gt;&lt;br&gt;&lt;span style=&quot;color: rgb(0, 0, 0);&quot; class=&quot;mtk1&quot;&gt;&lt;font style=&quot;vertical-align: inherit;&quot;&gt;&lt;font style=&quot;vertical-align: inherit;&quot;&gt;interest = (balance * interestRate) /&amp;nbsp; &lt;/font&gt;&lt;/font&gt;&lt;/span&gt;&lt;span style=&quot;color: rgb(17, 102, 68);&quot; class=&quot;mtk12&quot;&gt;&lt;font style=&quot;vertical-align: inherit;&quot;&gt;&lt;font style=&quot;vertical-align: inherit;&quot;&gt;12 &lt;/font&gt;&lt;/font&gt;&lt;/span&gt;&lt;br&gt;&lt;span style=&quot;color: rgb(0, 0, 0);&quot; class=&quot;mtk1&quot;&gt;&lt;font style=&quot;vertical-align: inherit;&quot;&gt;&lt;font style=&quot;vertical-align: inherit;&quot;&gt;payment = ( &lt;/font&gt;&lt;/font&gt;&lt;/span&gt;&lt;span style=&quot;color: rgb(17, 102, 68);&quot; class=&quot;mtk12&quot;&gt;&lt;font style=&quot;vertical-align: inherit;&quot;&gt;&lt;font style=&quot;vertical-align: inherit;&quot;&gt;5 &lt;/font&gt;&lt;/font&gt;&lt;/span&gt;&lt;span style=&quot;color: rgb(0, 0, 0);&quot; class=&quot;mtk1&quot;&gt;&lt;font style=&quot;vertical-align: inherit;&quot;&gt;&lt;font style=&quot;vertical-align: inherit;&quot;&gt;&amp;nbsp;* balance) /&amp;nbsp; &lt;/font&gt;&lt;/font&gt;&lt;/span&gt;&lt;span style=&quot;color: rgb(17, 102, 68);&quot; class=&quot;mtk12&quot;&gt;&lt;font style=&quot;vertical-align: inherit;&quot;&gt;&lt;font style=&quot;vertical-align: inherit;&quot;&gt;100 &lt;/font&gt;&lt;/font&gt;&lt;/span&gt;&lt;br&gt;&lt;span style=&quot;color: rgb(0, 0, 0);&quot; class=&quot;mtk1&quot;&gt;&lt;font style=&quot;vertical-align: inherit;&quot;&gt;&lt;font style=&quot;vertical-align: inherit;&quot;&gt;principal = payment - interest &lt;/font&gt;&lt;/font&gt;&lt;/span&gt;&lt;br&gt;&lt;span style=&quot;color: rgb(0, 0, 0);&quot; class=&quot;mtk1&quot;&gt;&lt;font style=&quot;vertical-align: inherit;&quot;&gt;&lt;font style=&quot;vertical-align: inherit;&quot;&gt;numPayments =&amp;nbsp; &lt;/font&gt;&lt;/font&gt;&lt;/span&gt;&lt;span style=&quot;color: rgb(17, 102, 68);&quot; class=&quot;mtk12&quot;&gt;&lt;font style=&quot;vertical-align: inherit;&quot;&gt;&lt;font style=&quot;vertical-align: inherit;&quot;&gt;24&lt;/font&gt;&lt;/font&gt;&lt;/span&gt;&lt;br&gt;&lt;/pre&gt;" style="shape=parallelogram;perimeter=parallelogramPerimeter;whiteSpace=wrap;html=1;fixedSize=1;" vertex="1" parent="1">
          <mxGeometry x="18" y="218" width="282" height="146" as="geometry" />
        </mxCell>
        <mxCell id="KA9Wz9pon_2ReE_rLUgd-4" value="" style="endArrow=none;html=1;rounded=0;fontSize=12;startSize=8;endSize=8;curved=1;exitX=1;exitY=0.5;exitDx=0;exitDy=0;" edge="1" parent="1" source="GR9gfGlC2uIBBYj3jPdS-1">
          <mxGeometry width="50" height="50" relative="1" as="geometry">
            <mxPoint x="263" y="536" as="sourcePoint" />
            <mxPoint x="492" y="624" as="targetPoint" />
          </mxGeometry>
        </mxCell>
        <mxCell id="KA9Wz9pon_2ReE_rLUgd-5" value="" style="endArrow=none;html=1;rounded=0;fontSize=12;startSize=8;endSize=8;curved=1;entryX=0;entryY=0.5;entryDx=0;entryDy=0;" edge="1" parent="1" target="GR9gfGlC2uIBBYj3jPdS-1">
          <mxGeometry width="50" height="50" relative="1" as="geometry">
            <mxPoint x="-224" y="617" as="sourcePoint" />
            <mxPoint x="134" y="835" as="targetPoint" />
          </mxGeometry>
        </mxCell>
        <mxCell id="KA9Wz9pon_2ReE_rLUgd-6" value="" style="endArrow=classic;html=1;rounded=0;fontSize=12;startSize=8;endSize=8;curved=1;" edge="1" parent="1">
          <mxGeometry width="50" height="50" relative="1" as="geometry">
            <mxPoint x="-223" y="615" as="sourcePoint" />
            <mxPoint x="-223" y="964" as="targetPoint" />
          </mxGeometry>
        </mxCell>
        <mxCell id="KA9Wz9pon_2ReE_rLUgd-7" value="" style="endArrow=classic;html=1;rounded=0;fontSize=12;startSize=8;endSize=8;curved=1;" edge="1" parent="1">
          <mxGeometry width="50" height="50" relative="1" as="geometry">
            <mxPoint x="486" y="619" as="sourcePoint" />
            <mxPoint x="486" y="960" as="targetPoint" />
          </mxGeometry>
        </mxCell>
        <mxCell id="tmxIqDw2AwCweyRekZ3u-1" value="&lt;pre style=&quot;font-family: var(--colab-code-font-family); margin-top: 10px; margin-right: 8px; margin-bottom: 8px; white-space-collapse: collapse; color: rgb(31, 31, 31); font-size: 13px; -webkit-box-flex: 1; flex: 1 1 0%; min-width: 0px; overflow: auto; text-align: start;&quot; data-lang=&quot;notebook-python&quot; class=&quot;editor flex monaco monaco-colorized colab colab&quot;&gt;&lt;span style=&quot;color: rgb(175, 0, 219);&quot; class=&quot;mtk19&quot;&gt;&lt;font style=&quot;vertical-align: inherit;&quot;&gt;&lt;font style=&quot;vertical-align: inherit;&quot;&gt;для &lt;/font&gt;&lt;/font&gt;&lt;/span&gt;&lt;span style=&quot;color: rgb(0, 0, 0);&quot; class=&quot;mtk1&quot;&gt;&lt;font style=&quot;vertical-align: inherit;&quot;&gt;&lt;font style=&quot;vertical-align: inherit;&quot;&gt;&amp;nbsp;месяца&amp;nbsp; &lt;/font&gt;&lt;/font&gt;&lt;/span&gt;&lt;span style=&quot;color: rgb(0, 0, 255);&quot; class=&quot;mtk6&quot;&gt;&lt;font style=&quot;vertical-align: inherit;&quot;&gt;&lt;font style=&quot;vertical-align: inherit;&quot;&gt;в &lt;/font&gt;&lt;/font&gt;&lt;/span&gt;&lt;font style=&quot;vertical-align: inherit;&quot;&gt;&lt;span style=&quot;color: rgb(121, 94, 38);&quot; class=&quot;mtk15&quot;&gt;&lt;font style=&quot;vertical-align: inherit;&quot;&gt;диапазоне &lt;/font&gt;&lt;/span&gt;&lt;span style=&quot;color: rgb(0, 0, 0);&quot; class=&quot;mtk1&quot;&gt;&lt;font style=&quot;vertical-align: inherit;&quot;&gt;( &lt;/font&gt;&lt;/span&gt;&lt;span style=&quot;color: rgb(17, 102, 68);&quot; class=&quot;mtk12&quot;&gt;&lt;font style=&quot;vertical-align: inherit;&quot;&gt;1 &lt;/font&gt;&lt;/span&gt;&lt;span style=&quot;color: rgb(0, 0, 0);&quot; class=&quot;mtk1&quot;&gt;&lt;font style=&quot;vertical-align: inherit;&quot;&gt;, numPayments + &lt;/font&gt;&lt;/span&gt;&lt;span style=&quot;color: rgb(17, 102, 68);&quot; class=&quot;mtk12&quot;&gt;&lt;font style=&quot;vertical-align: inherit;&quot;&gt;1 &lt;/font&gt;&lt;/span&gt;&lt;span style=&quot;color: rgb(0, 0, 0);&quot; class=&quot;mtk1&quot;&gt;&lt;font style=&quot;vertical-align: inherit;&quot;&gt;):&lt;/font&gt;&lt;/span&gt;&lt;/font&gt;&lt;span style=&quot;color: rgb(0, 0, 0);&quot; class=&quot;mtk1&quot;&gt;&amp;nbsp;&lt;/span&gt;&lt;span style=&quot;color: rgb(121, 94, 38);&quot; class=&quot;mtk15&quot;&gt;&lt;font style=&quot;vertical-align: inherit;&quot;&gt;&lt;/font&gt;&lt;/span&gt;&lt;span style=&quot;color: rgb(0, 0, 0);&quot; class=&quot;mtk1&quot;&gt;&lt;font style=&quot;vertical-align: inherit;&quot;&gt;&lt;/font&gt;&lt;/span&gt;&lt;span style=&quot;color: rgb(17, 102, 68);&quot; class=&quot;mtk12&quot;&gt;&lt;font style=&quot;vertical-align: inherit;&quot;&gt;&lt;/font&gt;&lt;/span&gt;&lt;span style=&quot;color: rgb(0, 0, 0);&quot; class=&quot;mtk1&quot;&gt;&lt;font style=&quot;vertical-align: inherit;&quot;&gt;&lt;/font&gt;&lt;/span&gt;&lt;span style=&quot;color: rgb(17, 102, 68);&quot; class=&quot;mtk12&quot;&gt;&lt;font style=&quot;vertical-align: inherit;&quot;&gt;&lt;/font&gt;&lt;/span&gt;&lt;span style=&quot;color: rgb(0, 0, 0);&quot; class=&quot;mtk1&quot;&gt;&lt;font style=&quot;vertical-align: inherit;&quot;&gt;&lt;/font&gt;&lt;/span&gt;&lt;/pre&gt;" style="text;html=1;align=center;verticalAlign=middle;resizable=0;points=[];autosize=1;strokeColor=none;fillColor=none;fontSize=16;" vertex="1" parent="1">
          <mxGeometry x="181" y="381" width="329" height="46" as="geometry" />
        </mxCell>
        <mxCell id="tmxIqDw2AwCweyRekZ3u-3" value="&lt;font style=&quot;vertical-align: inherit;&quot;&gt;&lt;font style=&quot;vertical-align: inherit;&quot;&gt;да&lt;/font&gt;&lt;/font&gt;" style="text;html=1;align=center;verticalAlign=middle;resizable=0;points=[];autosize=1;strokeColor=none;fillColor=none;fontSize=16;" vertex="1" parent="1">
          <mxGeometry x="370" y="534.5" width="36" height="31" as="geometry" />
        </mxCell>
        <mxCell id="tmxIqDw2AwCweyRekZ3u-4" value="&lt;br&gt;&lt;div&gt;&lt;font style=&quot;vertical-align: inherit;&quot;&gt;&lt;font style=&quot;vertical-align: inherit;&quot;&gt;&lt;font style=&quot;vertical-align: inherit;&quot;&gt;&lt;font style=&quot;vertical-align: inherit;&quot;&gt;&amp;nbsp; &amp;nbsp; печать(&quot;%10s%20.2f%20.2f%20.2f%10.2f%20.2f&quot; % \&lt;/font&gt;&lt;/font&gt;&lt;/font&gt;&lt;/font&gt;&lt;/div&gt;&lt;div&gt;&lt;font style=&quot;vertical-align: inherit;&quot;&gt;&lt;font style=&quot;vertical-align: inherit;&quot;&gt;&lt;font style=&quot;vertical-align: inherit;&quot;&gt;&lt;font style=&quot;vertical-align: inherit;&quot;&gt;&amp;nbsp; &amp;nbsp; &amp;nbsp; &amp;nbsp; (месяц, остаток, проценты, основная суть)&lt;/font&gt;&lt;/font&gt;&lt;/font&gt;&lt;/font&gt;&lt;/div&gt;" style="shape=parallelogram;perimeter=parallelogramPerimeter;whiteSpace=wrap;html=1;fixedSize=1;" vertex="1" parent="1">
          <mxGeometry x="312" y="961" width="323" height="63" as="geometry" />
        </mxCell>
        <mxCell id="tmxIqDw2AwCweyRekZ3u-5" value="&lt;font style=&quot;vertical-align: inherit;&quot;&gt;&lt;font style=&quot;vertical-align: inherit;&quot;&gt;&lt;font style=&quot;vertical-align: inherit;&quot;&gt;&lt;font style=&quot;vertical-align: inherit;&quot;&gt;нет&lt;/font&gt;&lt;/font&gt;&lt;/font&gt;&lt;/font&gt;" style="text;html=1;align=center;verticalAlign=middle;resizable=0;points=[];autosize=1;strokeColor=none;fillColor=none;fontSize=16;" vertex="1" parent="1">
          <mxGeometry x="-125" y="534.5" width="43" height="31" as="geometry" />
        </mxCell>
        <mxCell id="tmxIqDw2AwCweyRekZ3u-6" value="&lt;font style=&quot;vertical-align: inherit;&quot;&gt;&lt;font style=&quot;vertical-align: inherit;&quot;&gt;endBalance &amp;lt; оплата:&lt;/font&gt;&lt;/font&gt;" style="rhombus;whiteSpace=wrap;html=1;" vertex="1" parent="1">
          <mxGeometry x="-317" y="964" width="190" height="176" as="geometry" />
        </mxCell>
        <mxCell id="tmxIqDw2AwCweyRekZ3u-7" value="&lt;font style=&quot;vertical-align: inherit;&quot;&gt;&lt;font style=&quot;vertical-align: inherit;&quot;&gt;IF&lt;/font&gt;&lt;/font&gt;" style="text;html=1;align=center;verticalAlign=middle;resizable=0;points=[];autosize=1;strokeColor=none;fillColor=none;fontSize=16;" vertex="1" parent="1">
          <mxGeometry x="-294" y="839.5" width="31" height="31" as="geometry" />
        </mxCell>
        <mxCell id="tmxIqDw2AwCweyRekZ3u-9" value="&lt;font style=&quot;vertical-align: inherit;&quot;&gt;&lt;font style=&quot;vertical-align: inherit;&quot;&gt;&lt;font style=&quot;vertical-align: inherit;&quot;&gt;&lt;font style=&quot;vertical-align: inherit;&quot;&gt;&lt;font style=&quot;vertical-align: inherit;&quot;&gt;&lt;font style=&quot;vertical-align: inherit;&quot;&gt;&lt;font style=&quot;vertical-align: inherit;&quot;&gt;&lt;font style=&quot;vertical-align: inherit;&quot;&gt;оплата = endBalance&lt;/font&gt;&lt;/font&gt;&lt;/font&gt;&lt;/font&gt;&lt;/font&gt;&lt;/font&gt;&lt;/font&gt;&lt;/font&gt;&lt;div&gt;&lt;font style=&quot;vertical-align: inherit;&quot;&gt;&lt;font style=&quot;vertical-align: inherit;&quot;&gt;&lt;font style=&quot;vertical-align: inherit;&quot;&gt;&lt;font style=&quot;vertical-align: inherit;&quot;&gt;&lt;font style=&quot;vertical-align: inherit;&quot;&gt;&lt;font style=&quot;vertical-align: inherit;&quot;&gt;&lt;font style=&quot;vertical-align: inherit;&quot;&gt;&lt;font style=&quot;vertical-align: inherit;&quot;&gt;&amp;nbsp; &amp;nbsp; баланс = конечныйБаланс&lt;/font&gt;&lt;/font&gt;&lt;/font&gt;&lt;/font&gt;&lt;/font&gt;&lt;/font&gt;&lt;/font&gt;&lt;/font&gt;&lt;/div&gt;" style="rounded=0;whiteSpace=wrap;html=1;" vertex="1" parent="1">
          <mxGeometry x="-550" y="1339" width="175" height="40" as="geometry" />
        </mxCell>
        <mxCell id="tmxIqDw2AwCweyRekZ3u-10" value="" style="endArrow=none;html=1;rounded=0;fontSize=12;startSize=8;endSize=8;curved=1;entryX=0;entryY=0.5;entryDx=0;entryDy=0;" edge="1" parent="1" target="tmxIqDw2AwCweyRekZ3u-6">
          <mxGeometry width="50" height="50" relative="1" as="geometry">
            <mxPoint x="-487" y="1062" as="sourcePoint" />
            <mxPoint x="-220" y="1211" as="targetPoint" />
          </mxGeometry>
        </mxCell>
        <mxCell id="tmxIqDw2AwCweyRekZ3u-11" value="" style="endArrow=none;html=1;rounded=0;fontSize=12;startSize=8;endSize=8;curved=1;exitX=1;exitY=0.5;exitDx=0;exitDy=0;" edge="1" parent="1" source="tmxIqDw2AwCweyRekZ3u-6">
          <mxGeometry width="50" height="50" relative="1" as="geometry">
            <mxPoint x="-123" y="1055" as="sourcePoint" />
            <mxPoint x="149" y="1052" as="targetPoint" />
          </mxGeometry>
        </mxCell>
        <mxCell id="tmxIqDw2AwCweyRekZ3u-13" value="&lt;font style=&quot;vertical-align: inherit;&quot;&gt;&lt;font style=&quot;vertical-align: inherit;&quot;&gt;нет&lt;/font&gt;&lt;/font&gt;" style="text;html=1;align=center;verticalAlign=middle;resizable=0;points=[];autosize=1;strokeColor=none;fillColor=none;fontSize=16;" vertex="1" parent="1">
          <mxGeometry x="-102" y="964.5" width="43" height="31" as="geometry" />
        </mxCell>
        <mxCell id="tmxIqDw2AwCweyRekZ3u-14" value="" style="endArrow=classic;html=1;rounded=0;fontSize=12;startSize=8;endSize=8;curved=1;entryX=0.5;entryY=1;entryDx=0;entryDy=0;" edge="1" parent="1" target="GR9gfGlC2uIBBYj3jPdS-1">
          <mxGeometry width="50" height="50" relative="1" as="geometry">
            <mxPoint x="151" y="1059" as="sourcePoint" />
            <mxPoint x="151" y="736" as="targetPoint" />
          </mxGeometry>
        </mxCell>
        <mxCell id="tmxIqDw2AwCweyRekZ3u-16" value="&lt;font style=&quot;vertical-align: inherit;&quot;&gt;&lt;font style=&quot;vertical-align: inherit;&quot;&gt;да&lt;/font&gt;&lt;/font&gt;" style="text;html=1;align=center;verticalAlign=middle;resizable=0;points=[];autosize=1;strokeColor=none;fillColor=none;fontSize=16;" vertex="1" parent="1">
          <mxGeometry x="-432" y="948.5" width="36" height="31" as="geometry" />
        </mxCell>
        <mxCell id="tmxIqDw2AwCweyRekZ3u-17" value="" style="endArrow=classic;html=1;rounded=0;fontSize=12;startSize=8;endSize=8;curved=1;" edge="1" parent="1">
          <mxGeometry width="50" height="50" relative="1" as="geometry">
            <mxPoint x="-484" y="1060" as="sourcePoint" />
            <mxPoint x="-479" y="1338" as="targetPoint" />
          </mxGeometry>
        </mxCell>
      </root>
    </mxGraphModel>
  </diagram>
  <diagram id="q3W8igDPu8nuN1W9YVie" name="Страница — 10">
    <mxGraphModel dx="1017" dy="1609" grid="0" gridSize="10" guides="1" tooltips="1" connect="1" arrows="1" fold="1" page="0" pageScale="1" pageWidth="827" pageHeight="1169" math="0" shadow="0">
      <root>
        <mxCell id="0" />
        <mxCell id="1" parent="0" />
        <mxCell id="SPDOAwDaMdCLtqcPb4y0-2" style="edgeStyle=none;curved=1;rounded=0;orthogonalLoop=1;jettySize=auto;html=1;fontSize=12;startSize=8;endSize=8;entryX=0.5;entryY=0;entryDx=0;entryDy=0;" edge="1" parent="1" source="SPDOAwDaMdCLtqcPb4y0-1" target="SPDOAwDaMdCLtqcPb4y0-8">
          <mxGeometry relative="1" as="geometry">
            <mxPoint x="200" y="312.66436767578125" as="targetPoint" />
          </mxGeometry>
        </mxCell>
        <mxCell id="SPDOAwDaMdCLtqcPb4y0-1" value="&lt;font style=&quot;vertical-align: inherit;&quot;&gt;&lt;font style=&quot;vertical-align: inherit;&quot;&gt;начало&lt;/font&gt;&lt;/font&gt;" style="ellipse;whiteSpace=wrap;html=1;" vertex="1" parent="1">
          <mxGeometry x="140" y="160" width="120" height="80" as="geometry" />
        </mxCell>
        <mxCell id="SPDOAwDaMdCLtqcPb4y0-5" value="&lt;font style=&quot;vertical-align: inherit;&quot;&gt;&lt;font style=&quot;vertical-align: inherit;&quot;&gt;баланс &amp;gt; 0,0:&lt;/font&gt;&lt;/font&gt;" style="rhombus;whiteSpace=wrap;html=1;" vertex="1" parent="1">
          <mxGeometry x="142.5" y="458" width="127.5" height="89" as="geometry" />
        </mxCell>
        <mxCell id="SPDOAwDaMdCLtqcPb4y0-6" value="" style="endArrow=none;html=1;rounded=0;fontSize=12;startSize=8;endSize=8;curved=1;exitX=1;exitY=0.5;exitDx=0;exitDy=0;" edge="1" parent="1" source="SPDOAwDaMdCLtqcPb4y0-5">
          <mxGeometry width="50" height="50" relative="1" as="geometry">
            <mxPoint x="184" y="545" as="sourcePoint" />
            <mxPoint x="414" y="494" as="targetPoint" />
          </mxGeometry>
        </mxCell>
        <mxCell id="SPDOAwDaMdCLtqcPb4y0-7" value="" style="endArrow=none;html=1;rounded=0;fontSize=12;startSize=8;endSize=8;curved=1;entryX=0;entryY=0.5;entryDx=0;entryDy=0;" edge="1" parent="1" target="SPDOAwDaMdCLtqcPb4y0-5">
          <mxGeometry width="50" height="50" relative="1" as="geometry">
            <mxPoint x="-21" y="508" as="sourcePoint" />
            <mxPoint x="220" y="563" as="targetPoint" />
          </mxGeometry>
        </mxCell>
        <mxCell id="SPDOAwDaMdCLtqcPb4y0-9" style="edgeStyle=none;curved=1;rounded=0;orthogonalLoop=1;jettySize=auto;html=1;fontSize=12;startSize=8;endSize=8;" edge="1" parent="1" source="SPDOAwDaMdCLtqcPb4y0-8" target="SPDOAwDaMdCLtqcPb4y0-5">
          <mxGeometry relative="1" as="geometry" />
        </mxCell>
        <mxCell id="SPDOAwDaMdCLtqcPb4y0-8" value="&lt;pre style=&quot;font-family: var(--colab-code-font-family); margin-top: 10px; margin-right: 8px; margin-bottom: 8px; white-space-collapse: collapse; color: rgb(31, 31, 31); font-size: 13px; -webkit-box-flex: 1; flex: 1 1 0%; min-width: 0px; overflow: auto; text-align: start;&quot; data-lang=&quot;notebook-python&quot; class=&quot;editor flex monaco monaco-colorized colab colab&quot;&gt;&lt;span style=&quot;color: rgb(0, 0, 0);&quot; class=&quot;mtk1&quot;&gt;&lt;font style=&quot;vertical-align: inherit;&quot;&gt;&lt;font style=&quot;vertical-align: inherit;&quot;&gt;месяц =&amp;nbsp; &lt;/font&gt;&lt;/font&gt;&lt;/span&gt;&lt;span style=&quot;color: rgb(17, 102, 68);&quot; class=&quot;mtk12&quot;&gt;&lt;font style=&quot;vertical-align: inherit;&quot;&gt;&lt;font style=&quot;vertical-align: inherit;&quot;&gt;​​1&lt;/font&gt;&lt;/font&gt;&lt;/span&gt;&lt;/pre&gt;" style="shape=parallelogram;perimeter=parallelogramPerimeter;whiteSpace=wrap;html=1;fixedSize=1;" vertex="1" parent="1">
          <mxGeometry x="148" y="319" width="107" height="50" as="geometry" />
        </mxCell>
        <mxCell id="SPDOAwDaMdCLtqcPb4y0-12" value="" style="endArrow=classic;html=1;rounded=0;fontSize=12;startSize=8;endSize=8;curved=1;" edge="1" parent="1">
          <mxGeometry width="50" height="50" relative="1" as="geometry">
            <mxPoint x="-21" y="507" as="sourcePoint" />
            <mxPoint x="-14" y="679" as="targetPoint" />
          </mxGeometry>
        </mxCell>
        <mxCell id="SPDOAwDaMdCLtqcPb4y0-13" value="" style="endArrow=classic;html=1;rounded=0;fontSize=12;startSize=8;endSize=8;curved=1;" edge="1" parent="1">
          <mxGeometry width="50" height="50" relative="1" as="geometry">
            <mxPoint x="415" y="494" as="sourcePoint" />
            <mxPoint x="423" y="661" as="targetPoint" />
          </mxGeometry>
        </mxCell>
        <mxCell id="SPDOAwDaMdCLtqcPb4y0-14" value="&lt;font style=&quot;vertical-align: inherit;&quot;&gt;&lt;font style=&quot;vertical-align: inherit;&quot;&gt;да&lt;/font&gt;&lt;/font&gt;" style="text;html=1;align=center;verticalAlign=middle;resizable=0;points=[];autosize=1;strokeColor=none;fillColor=none;fontSize=16;" vertex="1" parent="1">
          <mxGeometry x="292" y="447.5" width="36" height="31" as="geometry" />
        </mxCell>
        <mxCell id="SPDOAwDaMdCLtqcPb4y0-16" value="&lt;font style=&quot;vertical-align: inherit;&quot;&gt;&lt;font style=&quot;vertical-align: inherit;&quot;&gt;нет&lt;/font&gt;&lt;/font&gt;" style="text;html=1;align=center;verticalAlign=middle;resizable=0;points=[];autosize=1;strokeColor=none;fillColor=none;fontSize=16;" vertex="1" parent="1">
          <mxGeometry x="29" y="452.5" width="43" height="31" as="geometry" />
        </mxCell>
        <mxCell id="SPDOAwDaMdCLtqcPb4y0-17" value="&lt;pre style=&quot;font-family: var(--colab-code-font-family); margin-top: 10px; margin-right: 8px; margin-bottom: 8px; white-space-collapse: collapse; color: rgb(31, 31, 31); font-size: 13px; -webkit-box-flex: 1; flex: 1 1 0%; min-width: 0px; overflow: auto; text-align: start;&quot; data-lang=&quot;notebook-python&quot; class=&quot;editor flex monaco monaco-colorized colab colab&quot;&gt;&lt;span style=&quot;color: rgb(0, 0, 0);&quot; class=&quot;mtk1&quot;&gt;&lt;font style=&quot;vertical-align: inherit;&quot;&gt;&lt;font style=&quot;vertical-align: inherit;&quot;&gt;endBalance &amp;lt; оплата:&lt;/font&gt;&lt;/font&gt;&lt;/span&gt;&lt;/pre&gt;" style="rhombus;whiteSpace=wrap;html=1;" vertex="1" parent="1">
          <mxGeometry x="-98" y="679" width="171" height="79" as="geometry" />
        </mxCell>
        <mxCell id="SPDOAwDaMdCLtqcPb4y0-19" value="&lt;font style=&quot;vertical-align: inherit;&quot;&gt;&lt;font style=&quot;vertical-align: inherit;&quot;&gt;&lt;font style=&quot;vertical-align: inherit;&quot;&gt;&lt;font style=&quot;vertical-align: inherit;&quot;&gt;&lt;font style=&quot;vertical-align: inherit;&quot;&gt;&lt;font style=&quot;vertical-align: inherit;&quot;&gt;&lt;font style=&quot;vertical-align: inherit;&quot;&gt;&lt;font style=&quot;vertical-align: inherit;&quot;&gt;&lt;font style=&quot;vertical-align: inherit;&quot;&gt;&lt;font style=&quot;vertical-align: inherit;&quot;&gt;оплата = endBalance&lt;/font&gt;&lt;/font&gt;&lt;/font&gt;&lt;/font&gt;&lt;/font&gt;&lt;/font&gt;&lt;/font&gt;&lt;/font&gt;&lt;/font&gt;&lt;/font&gt;&lt;div&gt;&lt;font style=&quot;vertical-align: inherit;&quot;&gt;&lt;font style=&quot;vertical-align: inherit;&quot;&gt;&lt;font style=&quot;vertical-align: inherit;&quot;&gt;&lt;font style=&quot;vertical-align: inherit;&quot;&gt;&lt;font style=&quot;vertical-align: inherit;&quot;&gt;&lt;font style=&quot;vertical-align: inherit;&quot;&gt;&lt;font style=&quot;vertical-align: inherit;&quot;&gt;&lt;font style=&quot;vertical-align: inherit;&quot;&gt;&lt;font style=&quot;vertical-align: inherit;&quot;&gt;&lt;font style=&quot;vertical-align: inherit;&quot;&gt;&amp;nbsp; &amp;nbsp; &amp;nbsp; &amp;nbsp; баланс=конечныйбаланс&lt;/font&gt;&lt;/font&gt;&lt;/font&gt;&lt;/font&gt;&lt;/font&gt;&lt;/font&gt;&lt;/font&gt;&lt;/font&gt;&lt;/font&gt;&lt;/font&gt;&lt;/div&gt;&lt;div&gt;&lt;font style=&quot;vertical-align: inherit;&quot;&gt;&lt;font style=&quot;vertical-align: inherit;&quot;&gt;&lt;font style=&quot;vertical-align: inherit;&quot;&gt;&lt;font style=&quot;vertical-align: inherit;&quot;&gt;&lt;font style=&quot;vertical-align: inherit;&quot;&gt;&lt;font style=&quot;vertical-align: inherit;&quot;&gt;&lt;font style=&quot;vertical-align: inherit;&quot;&gt;&lt;font style=&quot;vertical-align: inherit;&quot;&gt;&lt;font style=&quot;vertical-align: inherit;&quot;&gt;&lt;font style=&quot;vertical-align: inherit;&quot;&gt;&amp;nbsp; &amp;nbsp; &amp;nbsp; &amp;nbsp; месяц+=1&lt;/font&gt;&lt;/font&gt;&lt;/font&gt;&lt;/font&gt;&lt;/font&gt;&lt;/font&gt;&lt;/font&gt;&lt;/font&gt;&lt;/font&gt;&lt;/font&gt;&lt;/div&gt;" style="rounded=0;whiteSpace=wrap;html=1;" vertex="1" parent="1">
          <mxGeometry x="-295" y="852" width="184" height="56" as="geometry" />
        </mxCell>
        <mxCell id="SPDOAwDaMdCLtqcPb4y0-20" value="&lt;font style=&quot;vertical-align: inherit;&quot;&gt;&lt;font style=&quot;vertical-align: inherit;&quot;&gt;баланс = баланс&lt;/font&gt;&lt;/font&gt;&lt;div&gt;&lt;font style=&quot;vertical-align: inherit;&quot;&gt;&lt;font style=&quot;vertical-align: inherit;&quot;&gt;&amp;nbsp; &amp;nbsp; проценты = остаток / 100&lt;/font&gt;&lt;/font&gt;&lt;/div&gt;&lt;div&gt;&lt;font style=&quot;vertical-align: inherit;&quot;&gt;&lt;font style=&quot;vertical-align: inherit;&quot;&gt;&amp;nbsp; &amp;nbsp; основной долг = платеж - проценты&lt;/font&gt;&lt;/font&gt;&lt;/div&gt;&lt;div&gt;&lt;font style=&quot;vertical-align: inherit;&quot;&gt;&lt;font style=&quot;vertical-align: inherit;&quot;&gt;&amp;nbsp; &amp;nbsp; endBalance = баланс - платеж + проценты&lt;/font&gt;&lt;/font&gt;&lt;/div&gt;&lt;div&gt;&lt;font style=&quot;vertical-align: inherit;&quot;&gt;&lt;font style=&quot;vertical-align: inherit;&quot;&gt;&amp;nbsp; &amp;nbsp; печать(&quot;%10s%15.2f%15.2f%15.2f%15.2f%15.2f&quot; % \&lt;/font&gt;&lt;/font&gt;&lt;/div&gt;&lt;div&gt;&lt;font style=&quot;vertical-align: inherit;&quot;&gt;&lt;font style=&quot;vertical-align: inherit;&quot;&gt;&amp;nbsp; &amp;nbsp; &amp;nbsp; &amp;nbsp; (месяц, остаток, проценты,&lt;/font&gt;&lt;/font&gt;&lt;/div&gt;" style="rounded=0;whiteSpace=wrap;html=1;" vertex="1" parent="1">
          <mxGeometry x="274" y="660" width="275" height="124" as="geometry" />
        </mxCell>
        <mxCell id="SPDOAwDaMdCLtqcPb4y0-21" value="&lt;font style=&quot;vertical-align: inherit;&quot;&gt;&lt;font style=&quot;vertical-align: inherit;&quot;&gt;while&lt;/font&gt;&lt;/font&gt;" style="text;html=1;align=center;verticalAlign=middle;resizable=0;points=[];autosize=1;strokeColor=none;fillColor=none;fontSize=16;" vertex="1" parent="1">
          <mxGeometry x="113" y="391.5" width="55" height="31" as="geometry" />
        </mxCell>
        <mxCell id="SPDOAwDaMdCLtqcPb4y0-22" value="&lt;font style=&quot;vertical-align: inherit;&quot;&gt;&lt;font style=&quot;vertical-align: inherit;&quot;&gt;If&lt;/font&gt;&lt;/font&gt;" style="text;html=1;align=center;verticalAlign=middle;resizable=0;points=[];autosize=1;strokeColor=none;fillColor=none;fontSize=16;" vertex="1" parent="1">
          <mxGeometry x="-58" y="615" width="28" height="31" as="geometry" />
        </mxCell>
        <mxCell id="SPDOAwDaMdCLtqcPb4y0-27" value="" style="endArrow=none;html=1;rounded=0;fontSize=12;startSize=8;endSize=8;curved=1;entryX=1;entryY=0.5;entryDx=0;entryDy=0;" edge="1" parent="1" target="SPDOAwDaMdCLtqcPb4y0-17">
          <mxGeometry width="50" height="50" relative="1" as="geometry">
            <mxPoint x="148" y="720" as="sourcePoint" />
            <mxPoint x="71" y="721" as="targetPoint" />
          </mxGeometry>
        </mxCell>
        <mxCell id="SPDOAwDaMdCLtqcPb4y0-28" value="" style="endArrow=none;html=1;rounded=0;fontSize=12;startSize=8;endSize=8;curved=1;entryX=0;entryY=0.5;entryDx=0;entryDy=0;" edge="1" parent="1" target="SPDOAwDaMdCLtqcPb4y0-17">
          <mxGeometry width="50" height="50" relative="1" as="geometry">
            <mxPoint x="-200" y="722" as="sourcePoint" />
            <mxPoint x="-38" y="730" as="targetPoint" />
          </mxGeometry>
        </mxCell>
        <mxCell id="SPDOAwDaMdCLtqcPb4y0-30" value="" style="endArrow=classic;html=1;rounded=0;fontSize=12;startSize=8;endSize=8;curved=1;" edge="1" parent="1">
          <mxGeometry width="50" height="50" relative="1" as="geometry">
            <mxPoint x="-199" y="723" as="sourcePoint" />
            <mxPoint x="-199" y="851" as="targetPoint" />
          </mxGeometry>
        </mxCell>
        <mxCell id="SPDOAwDaMdCLtqcPb4y0-31" value="&lt;font style=&quot;vertical-align: inherit;&quot;&gt;&lt;font style=&quot;vertical-align: inherit;&quot;&gt;да&lt;/font&gt;&lt;/font&gt;" style="text;html=1;align=center;verticalAlign=middle;resizable=0;points=[];autosize=1;strokeColor=none;fillColor=none;fontSize=16;" vertex="1" parent="1">
          <mxGeometry x="-153" y="666.5" width="36" height="31" as="geometry" />
        </mxCell>
        <mxCell id="SPDOAwDaMdCLtqcPb4y0-32" value="&lt;font style=&quot;vertical-align: inherit;&quot;&gt;&lt;font style=&quot;vertical-align: inherit;&quot;&gt;нет&lt;/font&gt;&lt;/font&gt;" style="text;html=1;align=center;verticalAlign=middle;resizable=0;points=[];autosize=1;strokeColor=none;fillColor=none;fontSize=16;" vertex="1" parent="1">
          <mxGeometry x="76" y="662.5" width="43" height="31" as="geometry" />
        </mxCell>
        <mxCell id="SPDOAwDaMdCLtqcPb4y0-33" value="" style="endArrow=classic;html=1;rounded=0;fontSize=12;startSize=8;endSize=8;curved=1;" edge="1" parent="1">
          <mxGeometry width="50" height="50" relative="1" as="geometry">
            <mxPoint x="148" y="721" as="sourcePoint" />
            <mxPoint x="146" y="843" as="targetPoint" />
          </mxGeometry>
        </mxCell>
        <mxCell id="SPDOAwDaMdCLtqcPb4y0-34" value="&lt;font style=&quot;vertical-align: inherit;&quot;&gt;&lt;font style=&quot;vertical-align: inherit;&quot;&gt;break&lt;/font&gt;&lt;/font&gt;" style="rhombus;whiteSpace=wrap;html=1;" vertex="1" parent="1">
          <mxGeometry x="106" y="840" width="80" height="80" as="geometry" />
        </mxCell>
      </root>
    </mxGraphModel>
  </diagram>
</mxfile>
